999
FreeCAD v0.19 24276 (Git)
  0
SECTION
  2
HEADER
  9
$ACADVER
  1
AC1014
  9
$ACADMAINTVER
 70
     9
  9
$DWGCODEPAGE
  3
ANSI_1252
  9
$TEXTSTYLE
  7
STANDARD
  9
$DIMSTYLE
  2
STANDARD
  9
$DIMTXSTY
  7
STANDARD
  9
$CMLSTYLE
  2
STANDARD
  9
$PEXTMAX
 10
50
 20
50
 30
50
  9
$PEXTMIN
 10
0
 20
0
 30
0
  9
$HANDSEED
  5
FFFF
  0
ENDSEC
  0
SECTION
  2
CLASSES
  0
CLASS
  1
ACDBDICTIONARYWDFLT
  2
AcDbDictionaryWithDefault
  3
ObjectDBX Classes
 90
        0
280
     0
281
     0
  0
CLASS
  1
XRECORD
  2
AcDbXrecord
  3
ObjectDBX Classes
 90
        0
280
     0
281
     0
  0
CLASS
  1
LWPOLYLINE
  2
AcDbPolyline
  3
ObjectDBX Classes
 90
        0
280
     0
281
     1
  0
ENDSEC
  0
SECTION
  2
TABLES
  0
TABLE
  2
VPORT
  5
20
330
0
100
AcDbSymbolTable
 70
     1
  0
VPORT
  5
21
330
20
100
AcDbSymbolTableRecord
100
AcDbViewportTableRecord
  2
*ACTIVE
 70
     0
  0
ENDTAB
  0
TABLE
  2
LTYPE
  5
22
330
0
100
AcDbSymbolTable
 70
     1
  0
LTYPE
  5
23
330
21
100
AcDbSymbolTableRecord
100
AcDbLinetypeTableRecord
  2
BYBLOCK
 70
     0
  3

 72
    65
 73
     0
 40
0.0
  0
LTYPE
  5
24
330
21
100
AcDbSymbolTableRecord
100
AcDbLinetypeTableRecord
  2
BYLAYER
 70
     0
  3

 72
    65
 73
     0
 40
0.0
  0
LTYPE
  5
25
330
21
100
AcDbSymbolTableRecord
100
AcDbLinetypeTableRecord
  2
CONTINUOUS
 70
     0
  3
Solid line
 72
    65
 73
     0
 40
0.0
  0
ENDTAB
  0
TABLE
  2
LAYER
  5
A8E
330
0
100
AcDbSymbolTable
 70
3
  0
LAYER
  5
A8F
330
A8E
100
AcDbSymbolTableRecord
100
AcDbLayerTableRecord
  2
0
 70
   0
 62
   7
  6
CONTINUOUS
  0
LAYER
  5
A90
330
A8E
100
AcDbSymbolTableRecord
100
AcDbLayerTableRecord
  2
none
 70
    0
 62
    7
  6
CONTINUOUS
  0
LAYER
  5
A91
330
A8E
100
AcDbSymbolTableRecord
100
AcDbLayerTableRecord
  2
Sketch
 70
    0
 62
    7
  6
CONTINUOUS
  0
ENDTAB
  0
TABLE
  2
STYLE
  5
70
330
0
100
AcDbSymbolTable
 70
     2
  0
STYLE
  5
71
330
70
100
AcDbSymbolTableRecord
100
AcDbTextStyleTableRecord
  2
STANDARD
 70
     0
 40
0.0
 41
1.0
 50
0.0
 71
     0
 42
2.5
  3
arial.ttf
  4

  0
STYLE
  5
72
330
70
100
AcDbSymbolTableRecord
100
AcDbTextStyleTableRecord
  2
ANNOTATIVE
 70
     0
 40
0.0
 41
1.0
 50
0.0
 71
     0
 42
2.5
  3
arial.ttf
  4

  0
ENDTAB
  0
TABLE
  2
VIEW
  5
73
330
0
100
AcDbSymbolTable
 70
     0
  0
ENDTAB
  0
TABLE
  2
UCS
  5
74
330
0
100
AcDbSymbolTable
 70
     0
  0
ENDTAB
  0
TABLE
  2
APPID
  5
75
330
0
100
AcDbSymbolTable
 70
     2
  0
APPID
  5
76
330
75
100
AcDbSymbolTableRecord
100
AcDbRegAppTableRecord
  2
ACAD
 70
     0
  0
APPID
  5
77
330
75
100
AcDbSymbolTableRecord
100
AcDbRegAppTableRecord
  2
ACADANNOTATIVE
 70
     0
  0
ENDTAB
  0
TABLE
  2
DIMSTYLE
  5
78
330
0
100
AcDbSymbolTable
 70
     2
  0
DIMSTYLE
105
79
330
78
100
AcDbSymbolTableRecord
100
AcDbDimStyleTableRecord
  2
STANDARD
 70
     0
  3

  4

  5

  6

  7

 40
0.0
 41
2.5
 42
0.625
 43
3.75
 44
1.25
 45
0.0
 46
0.0
 47
0.0
 48
0.0
140
2.5
141
2.5
142
0.0
143
0.03937007874016
144
1.0
145
0.0
146
1.0
147
0.625
 71
     0
 72
     0
 73
     0
 74
     0
 75
     0
 76
     0
 77
     1
 78
     8
170
     0
171
     3
172
     1
173
     0
174
     0
175
     0
176
     0
177
     0
178
     0
270
     2
271
     2
272
     2
273
     2
274
     3
340
71
275
     0
280
     0
281
     0
282
     0
283
     0
284
     8
285
     0
286
     0
287
     3
288
     0
  0
ENDTAB
  0
TABLE
  2
BLOCK_RECORD
  5
A01
330
0
100
AcDbSymbolTable
  70
5
  0
BLOCK_RECORD
  5
A02
330
A01
100
AcDbSymbolTableRecord
100
AcDbBlockTableRecord
  2
*MODEL_SPACE
  0
BLOCK_RECORD
  5
A03
330
A01
100
AcDbSymbolTableRecord
100
AcDbBlockTableRecord
  2
*PAPER_SPACE
  0
ENDTAB
  0
ENDSEC
  0
SECTION
  2
BLOCKS
  0
BLOCK
  5
A04
330
A02
100
AcDbEntity
  8
0
100
AcDbBlockBegin
  2
*MODEL_SPACE
 70
   0
 10
0
 20
0
 30
0
  3
*MODEL_SPACE
  1
 
  0
ENDBLK
  5
A05
330
A02
100
AcDbEntity
  8
0
100
AcDbBlockEnd
  0
BLOCK
  5
A06
330
A03
100
AcDbEntity
 67
1
  8
0
100
AcDbBlockBegin
  2
*PAPER_SPACE
 70
   0
 10
0
 20
0
 30
0
  3
*PAPER_SPACE
  1
 
  0
ENDBLK
  5
A07
330
A03
100
AcDbEntity
 67
    1
  8
0
100
AcDbBlockEnd
  0
ENDSEC
  0
SECTION
  2
ENTITIES
  0
SPLINE
  5
A08
330
A02
100
AcDbEntity
  8
Sketch
100
AcDbSpline
210
0
220
0
230
1
 70
9
 71
3
 72
41
 73
37
 74
0
 40
0
 40
0
 40
0
 40
0
 40
0.523599
 40
0.523599
 40
0.523599
 40
1.0472
 40
1.0472
 40
1.0472
 40
1.5708
 40
1.5708
 40
1.5708
 40
2.0944
 40
2.0944
 40
2.0944
 40
2.61799
 40
2.61799
 40
2.61799
 40
3.14159
 40
3.14159
 40
3.14159
 40
3.66519
 40
3.66519
 40
3.66519
 40
4.18879
 40
4.18879
 40
4.18879
 40
4.71239
 40
4.71239
 40
4.71239
 40
5.23599
 40
5.23599
 40
5.23599
 40
5.75959
 40
5.75959
 40
5.75959
 40
6.28319
 40
6.28319
 40
6.28319
 40
6.28319
 10
23.6
 20
-20
 30
0
 10
23.6005
 20
-19.7699
 30
0
 10
23.5486
 20
-19.5061
 30
0
 10
23.4154
 20
-19.2539
 30
0
 10
23.2842
 20
-19.0021
 30
0
 10
23.068
 20
-18.7677
 30
0
 10
22.8
 20
-18.6144
 30
0
 10
22.5332
 20
-18.4589
 30
0
 10
22.2221
 20
-18.3889
 30
0
 10
21.9385
 20
-18.4012
 30
0
 10
21.6534
 20
-18.412
 30
0
 10
21.399
 20
-18.4989
 30
0
 10
21.2
 20
-18.6144
 30
0
 10
21.0005
 20
-18.729
 30
0
 10
20.798
 20
-18.9058
 30
0
 10
20.6462
 20
-19.1473
 30
0
 10
20.4937
 20
-19.3868
 30
0
 10
20.3988
 20
-19.6913
 30
0
 10
20.4
 20
-20
 30
0
 10
20.3988
 20
-20.3088
 30
0
 10
20.4937
 20
-20.6133
 30
0
 10
20.6462
 20
-20.8527
 30
0
 10
20.798
 20
-21.0942
 30
0
 10
21.0005
 20
-21.271
 30
0
 10
21.2
 20
-21.3857
 30
0
 10
21.399
 20
-21.5011
 30
0
 10
21.6534
 20
-21.5881
 30
0
 10
21.9385
 20
-21.5988
 30
0
 10
22.2221
 20
-21.6111
 30
0
 10
22.5332
 20
-21.5411
 30
0
 10
22.8
 20
-21.3857
 30
0
 10
23.068
 20
-21.2323
 30
0
 10
23.2842
 20
-20.9979
 30
0
 10
23.4154
 20
-20.7461
 30
0
 10
23.5486
 20
-20.4939
 30
0
 10
23.6005
 20
-20.2301
 30
0
 10
23.6
 20
-20
 30
0
  0
SPLINE
  5
A09
330
A02
100
AcDbEntity
  8
Sketch
100
AcDbSpline
210
0
220
0
230
1
 70
9
 71
3
 72
41
 73
37
 74
0
 40
0
 40
0
 40
0
 40
0
 40
0.523599
 40
0.523599
 40
0.523599
 40
1.0472
 40
1.0472
 40
1.0472
 40
1.5708
 40
1.5708
 40
1.5708
 40
2.0944
 40
2.0944
 40
2.0944
 40
2.61799
 40
2.61799
 40
2.61799
 40
3.14159
 40
3.14159
 40
3.14159
 40
3.66519
 40
3.66519
 40
3.66519
 40
4.18879
 40
4.18879
 40
4.18879
 40
4.71239
 40
4.71239
 40
4.71239
 40
5.23599
 40
5.23599
 40
5.23599
 40
5.75959
 40
5.75959
 40
5.75959
 40
6.28319
 40
6.28319
 40
6.28319
 40
6.28319
 10
138.6
 20
-19
 30
0
 10
138.6
 20
-18.7699
 30
0
 10
138.549
 20
-18.5061
 30
0
 10
138.415
 20
-18.2539
 30
0
 10
138.284
 20
-18.0021
 30
0
 10
138.068
 20
-17.7677
 30
0
 10
137.8
 20
-17.6143
 30
0
 10
137.533
 20
-17.4589
 30
0
 10
137.222
 20
-17.3889
 30
0
 10
136.938
 20
-17.4012
 30
0
 10
136.653
 20
-17.4119
 30
0
 10
136.399
 20
-17.4989
 30
0
 10
136.2
 20
-17.6143
 30
0
 10
136
 20
-17.729
 30
0
 10
135.798
 20
-17.9058
 30
0
 10
135.646
 20
-18.1473
 30
0
 10
135.494
 20
-18.3867
 30
0
 10
135.399
 20
-18.6912
 30
0
 10
135.4
 20
-19
 30
0
 10
135.399
 20
-19.3087
 30
0
 10
135.494
 20
-19.6132
 30
0
 10
135.646
 20
-19.8527
 30
0
 10
135.798
 20
-20.0942
 30
0
 10
136
 20
-20.271
 30
0
 10
136.2
 20
-20.3856
 30
0
 10
136.399
 20
-20.5011
 30
0
 10
136.653
 20
-20.588
 30
0
 10
136.938
 20
-20.5988
 30
0
 10
137.222
 20
-20.6111
 30
0
 10
137.533
 20
-20.5411
 30
0
 10
137.8
 20
-20.3856
 30
0
 10
138.068
 20
-20.2323
 30
0
 10
138.284
 20
-19.9979
 30
0
 10
138.415
 20
-19.7461
 30
0
 10
138.549
 20
-19.4939
 30
0
 10
138.6
 20
-19.2301
 30
0
 10
138.6
 20
-19
 30
0
  0
SPLINE
  5
A0A
330
A02
100
AcDbEntity
  8
Sketch
100
AcDbSpline
210
0
220
0
230
1
 70
9
 71
3
 72
41
 73
37
 74
0
 40
0
 40
0
 40
0
 40
0
 40
0.523599
 40
0.523599
 40
0.523599
 40
1.0472
 40
1.0472
 40
1.0472
 40
1.5708
 40
1.5708
 40
1.5708
 40
2.0944
 40
2.0944
 40
2.0944
 40
2.61799
 40
2.61799
 40
2.61799
 40
3.14159
 40
3.14159
 40
3.14159
 40
3.66519
 40
3.66519
 40
3.66519
 40
4.18879
 40
4.18879
 40
4.18879
 40
4.71239
 40
4.71239
 40
4.71239
 40
5.23599
 40
5.23599
 40
5.23599
 40
5.75959
 40
5.75959
 40
5.75959
 40
6.28319
 40
6.28319
 40
6.28319
 40
6.28319
 10
184.6
 20
-47.9999
 30
0
 10
184.6
 20
-47.7698
 30
0
 10
184.548
 20
-47.506
 30
0
 10
184.415
 20
-47.2538
 30
0
 10
184.284
 20
-47.002
 30
0
 10
184.068
 20
-46.7676
 30
0
 10
183.8
 20
-46.6143
 30
0
 10
183.533
 20
-46.4588
 30
0
 10
183.222
 20
-46.3888
 30
0
 10
182.938
 20
-46.4011
 30
0
 10
182.653
 20
-46.4118
 30
0
 10
182.399
 20
-46.4988
 30
0
 10
182.2
 20
-46.6143
 30
0
 10
182
 20
-46.7289
 30
0
 10
181.798
 20
-46.9057
 30
0
 10
181.646
 20
-47.1472
 30
0
 10
181.494
 20
-47.3867
 30
0
 10
181.399
 20
-47.6912
 30
0
 10
181.4
 20
-47.9999
 30
0
 10
181.399
 20
-48.3087
 30
0
 10
181.494
 20
-48.6131
 30
0
 10
181.646
 20
-48.8526
 30
0
 10
181.798
 20
-49.0941
 30
0
 10
182
 20
-49.2709
 30
0
 10
182.2
 20
-49.3855
 30
0
 10
182.399
 20
-49.501
 30
0
 10
182.653
 20
-49.588
 30
0
 10
182.938
 20
-49.5987
 30
0
 10
183.222
 20
-49.611
 30
0
 10
183.533
 20
-49.541
 30
0
 10
183.8
 20
-49.3855
 30
0
 10
184.068
 20
-49.2322
 30
0
 10
184.284
 20
-48.9978
 30
0
 10
184.415
 20
-48.746
 30
0
 10
184.548
 20
-48.4938
 30
0
 10
184.6
 20
-48.23
 30
0
 10
184.6
 20
-47.9999
 30
0
  0
SPLINE
  5
A0B
330
A02
100
AcDbEntity
  8
Sketch
100
AcDbSpline
210
0
220
0
230
1
 70
9
 71
3
 72
41
 73
37
 74
0
 40
0
 40
0
 40
0
 40
0
 40
0.523599
 40
0.523599
 40
0.523599
 40
1.0472
 40
1.0472
 40
1.0472
 40
1.5708
 40
1.5708
 40
1.5708
 40
2.0944
 40
2.0944
 40
2.0944
 40
2.61799
 40
2.61799
 40
2.61799
 40
3.14159
 40
3.14159
 40
3.14159
 40
3.66519
 40
3.66519
 40
3.66519
 40
4.18879
 40
4.18879
 40
4.18879
 40
4.71239
 40
4.71239
 40
4.71239
 40
5.23599
 40
5.23599
 40
5.23599
 40
5.75959
 40
5.75959
 40
5.75959
 40
6.28319
 40
6.28319
 40
6.28319
 40
6.28319
 10
184.6
 20
-161
 30
0
 10
184.6
 20
-160.77
 30
0
 10
184.548
 20
-160.506
 30
0
 10
184.415
 20
-160.254
 30
0
 10
184.284
 20
-160.002
 30
0
 10
184.068
 20
-159.768
 30
0
 10
183.8
 20
-159.614
 30
0
 10
183.533
 20
-159.459
 30
0
 10
183.222
 20
-159.389
 30
0
 10
182.938
 20
-159.401
 30
0
 10
182.653
 20
-159.412
 30
0
 10
182.399
 20
-159.499
 30
0
 10
182.2
 20
-159.614
 30
0
 10
182
 20
-159.729
 30
0
 10
181.798
 20
-159.906
 30
0
 10
181.646
 20
-160.147
 30
0
 10
181.494
 20
-160.387
 30
0
 10
181.399
 20
-160.691
 30
0
 10
181.4
 20
-161
 30
0
 10
181.399
 20
-161.309
 30
0
 10
181.494
 20
-161.613
 30
0
 10
181.646
 20
-161.853
 30
0
 10
181.798
 20
-162.094
 30
0
 10
182
 20
-162.271
 30
0
 10
182.2
 20
-162.386
 30
0
 10
182.399
 20
-162.501
 30
0
 10
182.653
 20
-162.588
 30
0
 10
182.938
 20
-162.599
 30
0
 10
183.222
 20
-162.611
 30
0
 10
183.533
 20
-162.541
 30
0
 10
183.8
 20
-162.386
 30
0
 10
184.068
 20
-162.232
 30
0
 10
184.284
 20
-161.998
 30
0
 10
184.415
 20
-161.746
 30
0
 10
184.548
 20
-161.494
 30
0
 10
184.6
 20
-161.23
 30
0
 10
184.6
 20
-161
 30
0
  0
SPLINE
  5
A0C
330
A02
100
AcDbEntity
  8
Sketch
100
AcDbSpline
210
0
220
0
230
1
 70
9
 71
3
 72
41
 73
37
 74
0
 40
0
 40
0
 40
0
 40
0
 40
0.523599
 40
0.523599
 40
0.523599
 40
1.0472
 40
1.0472
 40
1.0472
 40
1.5708
 40
1.5708
 40
1.5708
 40
2.0944
 40
2.0944
 40
2.0944
 40
2.61799
 40
2.61799
 40
2.61799
 40
3.14159
 40
3.14159
 40
3.14159
 40
3.66519
 40
3.66519
 40
3.66519
 40
4.18879
 40
4.18879
 40
4.18879
 40
4.71239
 40
4.71239
 40
4.71239
 40
5.23599
 40
5.23599
 40
5.23599
 40
5.75959
 40
5.75959
 40
5.75959
 40
6.28319
 40
6.28319
 40
6.28319
 40
6.28319
 10
129.6
 20
-137
 30
0
 10
129.6
 20
-136.77
 30
0
 10
129.549
 20
-136.506
 30
0
 10
129.415
 20
-136.254
 30
0
 10
129.284
 20
-136.002
 30
0
 10
129.068
 20
-135.768
 30
0
 10
128.8
 20
-135.614
 30
0
 10
128.533
 20
-135.459
 30
0
 10
128.222
 20
-135.389
 30
0
 10
127.938
 20
-135.401
 30
0
 10
127.653
 20
-135.412
 30
0
 10
127.399
 20
-135.499
 30
0
 10
127.2
 20
-135.614
 30
0
 10
127.001
 20
-135.729
 30
0
 10
126.798
 20
-135.906
 30
0
 10
126.646
 20
-136.147
 30
0
 10
126.494
 20
-136.387
 30
0
 10
126.399
 20
-136.691
 30
0
 10
126.4
 20
-137
 30
0
 10
126.399
 20
-137.309
 30
0
 10
126.494
 20
-137.613
 30
0
 10
126.646
 20
-137.853
 30
0
 10
126.798
 20
-138.094
 30
0
 10
127.001
 20
-138.271
 30
0
 10
127.2
 20
-138.386
 30
0
 10
127.399
 20
-138.501
 30
0
 10
127.653
 20
-138.588
 30
0
 10
127.938
 20
-138.599
 30
0
 10
128.222
 20
-138.611
 30
0
 10
128.533
 20
-138.541
 30
0
 10
128.8
 20
-138.386
 30
0
 10
129.068
 20
-138.232
 30
0
 10
129.284
 20
-137.998
 30
0
 10
129.415
 20
-137.746
 30
0
 10
129.549
 20
-137.494
 30
0
 10
129.6
 20
-137.23
 30
0
 10
129.6
 20
-137
 30
0
  0
SPLINE
  5
A0D
330
A02
100
AcDbEntity
  8
Sketch
100
AcDbSpline
210
0
220
0
230
1
 70
9
 71
3
 72
41
 73
37
 74
0
 40
0
 40
0
 40
0
 40
0
 40
0.523599
 40
0.523599
 40
0.523599
 40
1.0472
 40
1.0472
 40
1.0472
 40
1.5708
 40
1.5708
 40
1.5708
 40
2.0944
 40
2.0944
 40
2.0944
 40
2.61799
 40
2.61799
 40
2.61799
 40
3.14159
 40
3.14159
 40
3.14159
 40
3.66519
 40
3.66519
 40
3.66519
 40
4.18879
 40
4.18879
 40
4.18879
 40
4.71239
 40
4.71239
 40
4.71239
 40
5.23599
 40
5.23599
 40
5.23599
 40
5.75959
 40
5.75959
 40
5.75959
 40
6.28319
 40
6.28319
 40
6.28319
 40
6.28319
 10
33.5999
 20
-126
 30
0
 10
33.6004
 20
-125.77
 30
0
 10
33.5485
 20
-125.506
 30
0
 10
33.4153
 20
-125.254
 30
0
 10
33.2842
 20
-125.002
 30
0
 10
33.0679
 20
-124.768
 30
0
 10
32.7999
 20
-124.614
 30
0
 10
32.5332
 20
-124.459
 30
0
 10
32.222
 20
-124.389
 30
0
 10
31.9384
 20
-124.401
 30
0
 10
31.6533
 20
-124.412
 30
0
 10
31.399
 20
-124.499
 30
0
 10
31.1999
 20
-124.614
 30
0
 10
31.0004
 20
-124.729
 30
0
 10
30.7979
 20
-124.906
 30
0
 10
30.6461
 20
-125.147
 30
0
 10
30.4936
 20
-125.387
 30
0
 10
30.3987
 20
-125.691
 30
0
 10
30.3999
 20
-126
 30
0
 10
30.3987
 20
-126.309
 30
0
 10
30.4936
 20
-126.613
 30
0
 10
30.6461
 20
-126.853
 30
0
 10
30.7979
 20
-127.094
 30
0
 10
31.0004
 20
-127.271
 30
0
 10
31.1999
 20
-127.386
 30
0
 10
31.399
 20
-127.501
 30
0
 10
31.6533
 20
-127.588
 30
0
 10
31.9384
 20
-127.599
 30
0
 10
32.222
 20
-127.611
 30
0
 10
32.5332
 20
-127.541
 30
0
 10
32.7999
 20
-127.386
 30
0
 10
33.0679
 20
-127.232
 30
0
 10
33.2842
 20
-126.998
 30
0
 10
33.4153
 20
-126.746
 30
0
 10
33.5485
 20
-126.494
 30
0
 10
33.6004
 20
-126.23
 30
0
 10
33.5999
 20
-126
 30
0
  0
SPLINE
  5
A0E
330
A02
100
AcDbEntity
  8
Sketch
100
AcDbSpline
210
0
220
0
230
1
 70
8
 71
1
 72
4
 73
2
 74
0
 40
0
 40
0
 40
15590.3
 40
15590.3
 10
138.999
 20
-14.9987
 30
0
 10
167
 20
-42.9997
 30
0
  0
SPLINE
  5
A0F
330
A02
100
AcDbEntity
  8
Sketch
100
AcDbSpline
210
0
220
0
230
1
 70
8
 71
1
 72
4
 73
2
 74
0
 40
0
 40
0
 40
6692
 40
6692
 10
167
 20
-42.9997
 30
0
 10
183.998
 20
-42.9997
 30
0
  0
SPLINE
  5
A10
330
A02
100
AcDbEntity
  8
Sketch
100
AcDbSpline
210
0
220
0
230
1
 70
8
 71
1
 72
4
 73
2
 74
0
 40
0
 40
0
 40
2226.68
 40
2226.68
 10
183.998
 20
-42.9997
 30
0
 10
187.998
 20
-46.9976
 30
0
  0
SPLINE
  5
A11
330
A02
100
AcDbEntity
  8
Sketch
100
AcDbSpline
210
0
220
0
230
1
 70
8
 71
1
 72
4
 73
2
 74
0
 40
0
 40
0
 40
45276
 40
45276
 10
187.998
 20
-46.9976
 30
0
 10
187.998
 20
-161.999
 30
0
  0
SPLINE
  5
A12
330
A02
100
AcDbEntity
  8
Sketch
100
AcDbSpline
210
0
220
0
230
1
 70
8
 71
1
 72
4
 73
2
 74
0
 40
0
 40
0
 40
2227.39
 40
2227.39
 10
187.998
 20
-161.999
 30
0
 10
183.998
 20
-165.999
 30
0
  0
SPLINE
  5
A13
330
A02
100
AcDbEntity
  8
Sketch
100
AcDbSpline
210
0
220
0
230
1
 70
8
 71
1
 72
4
 73
2
 74
0
 40
0
 40
0
 40
12992
 40
12992
 10
183.998
 20
-165.999
 30
0
 10
150.998
 20
-165.999
 30
0
  0
SPLINE
  5
A14
330
A02
100
AcDbEntity
  8
Sketch
100
AcDbSpline
210
0
220
0
230
1
 70
8
 71
1
 72
4
 73
2
 74
0
 40
0
 40
0
 40
13919.4
 40
13919.4
 10
150.998
 20
-165.999
 30
0
 10
125.999
 20
-140.998
 30
0
  0
SPLINE
  5
A15
330
A02
100
AcDbEntity
  8
Sketch
100
AcDbSpline
210
0
220
0
230
1
 70
8
 71
1
 72
4
 73
2
 74
0
 40
0
 40
0
 40
33465
 40
33465
 10
125.999
 20
-140.998
 30
0
 10
40.9981
 20
-140.998
 30
0
  0
SPLINE
  5
A16
330
A02
100
AcDbEntity
  8
Sketch
100
AcDbSpline
210
0
220
0
230
1
 70
8
 71
1
 72
4
 73
2
 74
0
 40
0
 40
0
 40
13362.9
 40
13362.9
 10
40.9981
 20
-140.998
 30
0
 10
16.9977
 20
-116.997
 30
0
  0
SPLINE
  5
A17
330
A02
100
AcDbEntity
  8
Sketch
100
AcDbSpline
210
0
220
0
230
1
 70
8
 71
1
 72
4
 73
2
 74
0
 40
0
 40
0
 40
38582
 40
38582
 10
16.9977
 20
-116.997
 30
0
 10
16.9977
 20
-18.9992
 30
0
  0
SPLINE
  5
A18
330
A02
100
AcDbEntity
  8
Sketch
100
AcDbSpline
210
0
220
0
230
1
 70
8
 71
1
 72
4
 73
2
 74
0
 40
0
 40
0
 40
2227.39
 40
2227.39
 10
16.9977
 20
-18.9992
 30
0
 10
20.9982
 20
-14.9987
 30
0
  0
SPLINE
  5
A19
330
A02
100
AcDbEntity
  8
Sketch
100
AcDbSpline
210
0
220
0
230
1
 70
8
 71
1
 72
4
 73
2
 74
0
 40
0
 40
0
 40
46457
 40
46457
 10
20.9982
 20
-14.9987
 30
0
 10
138.999
 20
-14.9987
 30
0
  0
SPLINE
  5
A1A
330
A02
100
AcDbEntity
  8
Sketch
100
AcDbSpline
210
0
220
0
230
1
 70
8
 71
1
 72
4
 73
2
 74
0
 40
0
 40
0
 40
5511.94
 40
5511.94
 10
31.8999
 20
-114.671
 30
0
 10
30.6807
 20
-100.724
 30
0
  0
SPLINE
  5
A1B
330
A02
100
AcDbEntity
  8
Sketch
100
AcDbSpline
210
0
220
0
230
1
 70
8
 71
1
 72
4
 73
2
 74
0
 40
0
 40
0
 40
5511.94
 40
5511.94
 10
30.6807
 20
-100.724
 30
0
 10
44.6278
 20
-99.5045
 30
0
  0
SPLINE
  5
A1C
330
A02
100
AcDbEntity
  8
Sketch
100
AcDbSpline
210
0
220
0
230
1
 70
8
 71
1
 72
4
 73
2
 74
0
 40
0
 40
0
 40
5510.94
 40
5510.94
 10
44.6278
 20
-99.5045
 30
0
 10
45.847
 20
-113.449
 30
0
  0
SPLINE
  5
A1D
330
A02
100
AcDbEntity
  8
Sketch
100
AcDbSpline
210
0
220
0
230
1
 70
8
 71
1
 72
4
 73
2
 74
0
 40
0
 40
0
 40
5512.03
 40
5512.03
 10
45.847
 20
-113.449
 30
0
 10
31.8999
 20
-114.671
 30
0
  0
SPLINE
  5
A1E
330
A02
100
AcDbEntity
  8
Sketch
100
AcDbSpline
210
0
220
0
230
1
 70
8
 71
1
 72
4
 73
2
 74
0
 40
0
 40
0
 40
5512.03
 40
5512.03
 10
147.315
 20
-76.962
 30
0
 10
148.537
 20
-63.0149
 30
0
  0
SPLINE
  5
A1F
330
A02
100
AcDbEntity
  8
Sketch
100
AcDbSpline
210
0
220
0
230
1
 70
8
 71
1
 72
4
 73
2
 74
0
 40
0
 40
0
 40
5511.03
 40
5511.03
 10
148.537
 20
-63.0149
 30
0
 10
162.481
 20
-64.2366
 30
0
  0
SPLINE
  5
A20
330
A02
100
AcDbEntity
  8
Sketch
100
AcDbSpline
210
0
220
0
230
1
 70
8
 71
1
 72
4
 73
2
 74
0
 40
0
 40
0
 40
5510.94
 40
5510.94
 10
162.481
 20
-64.2366
 30
0
 10
161.262
 20
-78.1812
 30
0
  0
SPLINE
  5
A21
330
A02
100
AcDbEntity
  8
Sketch
100
AcDbSpline
210
0
220
0
230
1
 70
8
 71
1
 72
4
 73
2
 74
0
 40
0
 40
0
 40
5511.94
 40
5511.94
 10
161.262
 20
-78.1812
 30
0
 10
147.315
 20
-76.962
 30
0
  0
SPLINE
  5
A22
330
A02
100
AcDbEntity
  8
Sketch
100
AcDbSpline
210
0
220
0
230
1
 70
8
 71
1
 72
4
 73
2
 74
0
 40
0
 40
0
 40
5511.94
 40
5511.94
 10
145.115
 20
-102.161
 30
0
 10
146.334
 20
-88.2142
 30
0
  0
SPLINE
  5
A23
330
A02
100
AcDbEntity
  8
Sketch
100
AcDbSpline
210
0
220
0
230
1
 70
8
 71
1
 72
4
 73
2
 74
0
 40
0
 40
0
 40
5512.03
 40
5512.03
 10
146.334
 20
-88.2142
 30
0
 10
160.282
 20
-89.4359
 30
0
  0
SPLINE
  5
A24
330
A02
100
AcDbEntity
  8
Sketch
100
AcDbSpline
210
0
220
0
230
1
 70
8
 71
1
 72
4
 73
2
 74
0
 40
0
 40
0
 40
5511.94
 40
5511.94
 10
160.282
 20
-89.4359
 30
0
 10
159.062
 20
-103.383
 30
0
  0
SPLINE
  5
A25
330
A02
100
AcDbEntity
  8
Sketch
100
AcDbSpline
210
0
220
0
230
1
 70
8
 71
1
 72
4
 73
2
 74
0
 40
0
 40
0
 40
5512.03
 40
5512.03
 10
159.062
 20
-103.383
 30
0
 10
145.115
 20
-102.161
 30
0
  0
SPLINE
  5
A26
330
A02
100
AcDbEntity
  8
Sketch
100
AcDbSpline
210
0
220
0
230
1
 70
8
 71
1
 72
4
 73
2
 74
0
 40
0
 40
0
 40
5511.9
 40
5511.9
 10
155.9
 20
-145.999
 30
0
 10
165.798
 20
-136.098
 30
0
  0
SPLINE
  5
A27
330
A02
100
AcDbEntity
  8
Sketch
100
AcDbSpline
210
0
220
0
230
1
 70
8
 71
1
 72
4
 73
2
 74
0
 40
0
 40
0
 40
5512.6
 40
5512.6
 10
165.799
 20
-136.098
 30
0
 10
175.699
 20
-145.999
 30
0
  0
SPLINE
  5
A28
330
A02
100
AcDbEntity
  8
Sketch
100
AcDbSpline
210
0
220
0
230
1
 70
8
 71
1
 72
4
 73
2
 74
0
 40
0
 40
0
 40
5511.9
 40
5511.9
 10
175.699
 20
-145.999
 30
0
 10
165.799
 20
-155.898
 30
0
  0
SPLINE
  5
A29
330
A02
100
AcDbEntity
  8
Sketch
100
AcDbSpline
210
0
220
0
230
1
 70
8
 71
1
 72
4
 73
2
 74
0
 40
0
 40
0
 40
5511.19
 40
5511.19
 10
165.798
 20
-155.898
 30
0
 10
155.9
 20
-145.999
 30
0
  0
SPLINE
  5
A2A
330
A02
100
AcDbEntity
  8
Sketch
100
AcDbSpline
210
0
220
0
230
1
 70
8
 71
1
 72
4
 73
2
 74
0
 40
0
 40
0
 40
5511.94
 40
5511.94
 10
93.2815
 20
-39.2074
 30
0
 10
94.5007
 20
-25.2603
 30
0
  0
SPLINE
  5
A2B
330
A02
100
AcDbEntity
  8
Sketch
100
AcDbSpline
210
0
220
0
230
1
 70
8
 71
1
 72
4
 73
2
 74
0
 40
0
 40
0
 40
5512.03
 40
5512.03
 10
94.5007
 20
-25.2603
 30
0
 10
108.448
 20
-26.482
 30
0
  0
SPLINE
  5
A2C
330
A02
100
AcDbEntity
  8
Sketch
100
AcDbSpline
210
0
220
0
230
1
 70
8
 71
1
 72
4
 73
2
 74
0
 40
0
 40
0
 40
5510.94
 40
5510.94
 10
108.448
 20
-26.482
 30
0
 10
107.229
 20
-40.4266
 30
0
  0
SPLINE
  5
A2D
330
A02
100
AcDbEntity
  8
Sketch
100
AcDbSpline
210
0
220
0
230
1
 70
8
 71
1
 72
4
 73
2
 74
0
 40
0
 40
0
 40
5511.94
 40
5511.94
 10
107.229
 20
-40.4266
 30
0
 10
93.2815
 20
-39.2074
 30
0
  0
SPLINE
  5
A2E
330
A02
100
AcDbEntity
  8
Sketch
100
AcDbSpline
210
0
220
0
230
1
 70
8
 71
1
 72
4
 73
2
 74
0
 40
0
 40
0
 40
5512
 40
5512
 10
69.215
 20
-98.8644
 30
0
 10
69.215
 20
-84.8639
 30
0
  0
SPLINE
  5
A2F
330
A02
100
AcDbEntity
  8
Sketch
100
AcDbSpline
210
0
220
0
230
1
 70
8
 71
1
 72
4
 73
2
 74
0
 40
0
 40
0
 40
5512
 40
5512
 10
69.215
 20
-84.8639
 30
0
 10
83.2155
 20
-84.8639
 30
0
  0
SPLINE
  5
A30
330
A02
100
AcDbEntity
  8
Sketch
100
AcDbSpline
210
0
220
0
230
1
 70
8
 71
1
 72
4
 73
2
 74
0
 40
0
 40
0
 40
5512
 40
5512
 10
83.2155
 20
-84.8639
 30
0
 10
83.2155
 20
-98.8644
 30
0
  0
SPLINE
  5
A31
330
A02
100
AcDbEntity
  8
Sketch
100
AcDbSpline
210
0
220
0
230
1
 70
8
 71
1
 72
4
 73
2
 74
0
 40
0
 40
0
 40
5512
 40
5512
 10
83.2155
 20
-98.8644
 30
0
 10
69.215
 20
-98.8644
 30
0
  0
SPLINE
  5
A32
330
A02
100
AcDbEntity
  8
Sketch
100
AcDbSpline
210
0
220
0
230
1
 70
8
 71
1
 72
4
 73
2
 74
0
 40
0
 40
0
 40
5512
 40
5512
 10
69.215
 20
-79.8144
 30
0
 10
69.215
 20
-65.8139
 30
0
  0
SPLINE
  5
A33
330
A02
100
AcDbEntity
  8
Sketch
100
AcDbSpline
210
0
220
0
230
1
 70
8
 71
1
 72
4
 73
2
 74
0
 40
0
 40
0
 40
5512
 40
5512
 10
69.215
 20
-65.8139
 30
0
 10
83.2155
 20
-65.8139
 30
0
  0
SPLINE
  5
A34
330
A02
100
AcDbEntity
  8
Sketch
100
AcDbSpline
210
0
220
0
230
1
 70
8
 71
1
 72
4
 73
2
 74
0
 40
0
 40
0
 40
5512
 40
5512
 10
83.2155
 20
-65.8139
 30
0
 10
83.2155
 20
-79.8144
 30
0
  0
SPLINE
  5
A35
330
A02
100
AcDbEntity
  8
Sketch
100
AcDbSpline
210
0
220
0
230
1
 70
8
 71
1
 72
4
 73
2
 74
0
 40
0
 40
0
 40
5512
 40
5512
 10
83.2155
 20
-79.8144
 30
0
 10
69.215
 20
-79.8144
 30
0
  0
SPLINE
  5
A36
330
A02
100
AcDbEntity
  8
Sketch
100
AcDbSpline
210
0
220
0
230
1
 70
8
 71
1
 72
4
 73
2
 74
0
 40
0
 40
0
 40
5512
 40
5512
 10
69.215
 20
-60.7644
 30
0
 10
69.215
 20
-46.7639
 30
0
  0
SPLINE
  5
A37
330
A02
100
AcDbEntity
  8
Sketch
100
AcDbSpline
210
0
220
0
230
1
 70
8
 71
1
 72
4
 73
2
 74
0
 40
0
 40
0
 40
5512
 40
5512
 10
69.215
 20
-46.7639
 30
0
 10
83.2155
 20
-46.7639
 30
0
  0
SPLINE
  5
A38
330
A02
100
AcDbEntity
  8
Sketch
100
AcDbSpline
210
0
220
0
230
1
 70
8
 71
1
 72
4
 73
2
 74
0
 40
0
 40
0
 40
5512
 40
5512
 10
83.2155
 20
-46.7639
 30
0
 10
83.2155
 20
-60.7644
 30
0
  0
SPLINE
  5
A39
330
A02
100
AcDbEntity
  8
Sketch
100
AcDbSpline
210
0
220
0
230
1
 70
8
 71
1
 72
4
 73
2
 74
0
 40
0
 40
0
 40
5512
 40
5512
 10
83.2155
 20
-60.7644
 30
0
 10
69.215
 20
-60.7644
 30
0
  0
SPLINE
  5
A3A
330
A02
100
AcDbEntity
  8
Sketch
100
AcDbSpline
210
0
220
0
230
1
 70
8
 71
1
 72
4
 73
2
 74
0
 40
0
 40
0
 40
5512
 40
5512
 10
69.215
 20
-41.7144
 30
0
 10
69.215
 20
-27.7139
 30
0
  0
SPLINE
  5
A3B
330
A02
100
AcDbEntity
  8
Sketch
100
AcDbSpline
210
0
220
0
230
1
 70
8
 71
1
 72
4
 73
2
 74
0
 40
0
 40
0
 40
5512
 40
5512
 10
69.215
 20
-27.7139
 30
0
 10
83.2155
 20
-27.7139
 30
0
  0
SPLINE
  5
A3C
330
A02
100
AcDbEntity
  8
Sketch
100
AcDbSpline
210
0
220
0
230
1
 70
8
 71
1
 72
4
 73
2
 74
0
 40
0
 40
0
 40
5512
 40
5512
 10
83.2155
 20
-27.7139
 30
0
 10
83.2155
 20
-41.7144
 30
0
  0
SPLINE
  5
A3D
330
A02
100
AcDbEntity
  8
Sketch
100
AcDbSpline
210
0
220
0
230
1
 70
8
 71
1
 72
4
 73
2
 74
0
 40
0
 40
0
 40
5512
 40
5512
 10
83.2155
 20
-41.7144
 30
0
 10
69.215
 20
-41.7144
 30
0
  0
SPLINE
  5
A3E
330
A02
100
AcDbEntity
  8
Sketch
100
AcDbSpline
210
0
220
0
230
1
 70
8
 71
1
 72
4
 73
2
 74
0
 40
0
 40
0
 40
5511.94
 40
5511.94
 10
130.386
 20
-49.9567
 30
0
 10
131.605
 20
-36.0096
 30
0
  0
SPLINE
  5
A3F
330
A02
100
AcDbEntity
  8
Sketch
100
AcDbSpline
210
0
220
0
230
1
 70
8
 71
1
 72
4
 73
2
 74
0
 40
0
 40
0
 40
5512.03
 40
5512.03
 10
131.605
 20
-36.0096
 30
0
 10
145.552
 20
-37.2313
 30
0
  0
SPLINE
  5
A40
330
A02
100
AcDbEntity
  8
Sketch
100
AcDbSpline
210
0
220
0
230
1
 70
8
 71
1
 72
4
 73
2
 74
0
 40
0
 40
0
 40
5511.94
 40
5511.94
 10
145.552
 20
-37.2313
 30
0
 10
144.333
 20
-51.1785
 30
0
  0
SPLINE
  5
A41
330
A02
100
AcDbEntity
  8
Sketch
100
AcDbSpline
210
0
220
0
230
1
 70
8
 71
1
 72
4
 73
2
 74
0
 40
0
 40
0
 40
5512.03
 40
5512.03
 10
144.333
 20
-51.1785
 30
0
 10
130.386
 20
-49.9567
 30
0
  0
SPLINE
  5
A42
330
A02
100
AcDbEntity
  8
Sketch
100
AcDbSpline
210
0
220
0
230
1
 70
8
 71
1
 72
4
 73
2
 74
0
 40
0
 40
0
 40
5511.94
 40
5511.94
 10
128.709
 20
-69.1286
 30
0
 10
129.929
 20
-55.1815
 30
0
  0
SPLINE
  5
A43
330
A02
100
AcDbEntity
  8
Sketch
100
AcDbSpline
210
0
220
0
230
1
 70
8
 71
1
 72
4
 73
2
 74
0
 40
0
 40
0
 40
5511.94
 40
5511.94
 10
129.929
 20
-55.1815
 30
0
 10
143.876
 20
-56.4007
 30
0
  0
SPLINE
  5
A44
330
A02
100
AcDbEntity
  8
Sketch
100
AcDbSpline
210
0
220
0
230
1
 70
8
 71
1
 72
4
 73
2
 74
0
 40
0
 40
0
 40
5512.03
 40
5512.03
 10
143.876
 20
-56.4007
 30
0
 10
142.654
 20
-70.3478
 30
0
  0
SPLINE
  5
A45
330
A02
100
AcDbEntity
  8
Sketch
100
AcDbSpline
210
0
220
0
230
1
 70
8
 71
1
 72
4
 73
2
 74
0
 40
0
 40
0
 40
5510.94
 40
5510.94
 10
142.654
 20
-70.3478
 30
0
 10
128.709
 20
-69.1286
 30
0
  0
SPLINE
  5
A46
330
A02
100
AcDbEntity
  8
Sketch
100
AcDbSpline
210
0
220
0
230
1
 70
8
 71
1
 72
4
 73
2
 74
0
 40
0
 40
0
 40
5512.03
 40
5512.03
 10
127.043
 20
-88.1532
 30
0
 10
128.265
 20
-74.2061
 30
0
  0
SPLINE
  5
A47
330
A02
100
AcDbEntity
  8
Sketch
100
AcDbSpline
210
0
220
0
230
1
 70
8
 71
1
 72
4
 73
2
 74
0
 40
0
 40
0
 40
5511.94
 40
5511.94
 10
128.265
 20
-74.2061
 30
0
 10
142.212
 20
-75.4253
 30
0
  0
SPLINE
  5
A48
330
A02
100
AcDbEntity
  8
Sketch
100
AcDbSpline
210
0
220
0
230
1
 70
8
 71
1
 72
4
 73
2
 74
0
 40
0
 40
0
 40
5512.03
 40
5512.03
 10
142.212
 20
-75.4253
 30
0
 10
140.99
 20
-89.3724
 30
0
  0
SPLINE
  5
A49
330
A02
100
AcDbEntity
  8
Sketch
100
AcDbSpline
210
0
220
0
230
1
 70
8
 71
1
 72
4
 73
2
 74
0
 40
0
 40
0
 40
5511.94
 40
5511.94
 10
140.99
 20
-89.3724
 30
0
 10
127.043
 20
-88.1532
 30
0
  0
SPLINE
  5
A4A
330
A02
100
AcDbEntity
  8
Sketch
100
AcDbSpline
210
0
220
0
230
1
 70
8
 71
1
 72
4
 73
2
 74
0
 40
0
 40
0
 40
5511.94
 40
5511.94
 10
125.405
 20
-106.891
 30
0
 10
126.624
 20
-92.9437
 30
0
  0
SPLINE
  5
A4B
330
A02
100
AcDbEntity
  8
Sketch
100
AcDbSpline
210
0
220
0
230
1
 70
8
 71
1
 72
4
 73
2
 74
0
 40
0
 40
0
 40
5511.94
 40
5511.94
 10
126.624
 20
-92.9437
 30
0
 10
140.571
 20
-94.1629
 30
0
  0
SPLINE
  5
A4C
330
A02
100
AcDbEntity
  8
Sketch
100
AcDbSpline
210
0
220
0
230
1
 70
8
 71
1
 72
4
 73
2
 74
0
 40
0
 40
0
 40
5511.94
 40
5511.94
 10
140.571
 20
-94.1629
 30
0
 10
139.352
 20
-108.11
 30
0
  0
SPLINE
  5
A4D
330
A02
100
AcDbEntity
  8
Sketch
100
AcDbSpline
210
0
220
0
230
1
 70
8
 71
1
 72
4
 73
2
 74
0
 40
0
 40
0
 40
5511.94
 40
5511.94
 10
139.352
 20
-108.11
 30
0
 10
125.405
 20
-106.891
 30
0
  0
SPLINE
  5
A4E
330
A02
100
AcDbEntity
  8
Sketch
100
AcDbSpline
210
0
220
0
230
1
 70
8
 71
1
 72
4
 73
2
 74
0
 40
0
 40
0
 40
5511.55
 40
5511.55
 10
140.129
 20
-131.971
 30
0
 10
148.158
 20
-120.503
 30
0
  0
SPLINE
  5
A4F
330
A02
100
AcDbEntity
  8
Sketch
100
AcDbSpline
210
0
220
0
230
1
 70
8
 71
1
 72
4
 73
2
 74
0
 40
0
 40
0
 40
5512.12
 40
5512.12
 10
148.158
 20
-120.503
 30
0
 10
159.626
 20
-128.534
 30
0
  0
SPLINE
  5
A50
330
A02
100
AcDbEntity
  8
Sketch
100
AcDbSpline
210
0
220
0
230
1
 70
8
 71
1
 72
4
 73
2
 74
0
 40
0
 40
0
 40
5511.55
 40
5511.55
 10
159.626
 20
-128.534
 30
0
 10
151.597
 20
-140.002
 30
0
  0
SPLINE
  5
A51
330
A02
100
AcDbEntity
  8
Sketch
100
AcDbSpline
210
0
220
0
230
1
 70
8
 71
1
 72
4
 73
2
 74
0
 40
0
 40
0
 40
5512.12
 40
5512.12
 10
151.597
 20
-140.002
 30
0
 10
140.129
 20
-131.971
 30
0
  0
SPLINE
  5
A52
330
A02
100
AcDbEntity
  8
Sketch
100
AcDbSpline
210
0
220
0
230
1
 70
8
 71
1
 72
4
 73
2
 74
0
 40
0
 40
0
 40
5510.94
 40
5510.94
 10
111.872
 20
-43.9445
 30
0
 10
113.091
 20
-29.9999
 30
0
  0
SPLINE
  5
A53
330
A02
100
AcDbEntity
  8
Sketch
100
AcDbSpline
210
0
220
0
230
1
 70
8
 71
1
 72
4
 73
2
 74
0
 40
0
 40
0
 40
5511.94
 40
5511.94
 10
113.091
 20
-29.9999
 30
0
 10
127.038
 20
-31.2191
 30
0
  0
SPLINE
  5
A54
330
A02
100
AcDbEntity
  8
Sketch
100
AcDbSpline
210
0
220
0
230
1
 70
8
 71
1
 72
4
 73
2
 74
0
 40
0
 40
0
 40
5512.03
 40
5512.03
 10
127.038
 20
-31.2191
 30
0
 10
125.816
 20
-45.1663
 30
0
  0
SPLINE
  5
A55
330
A02
100
AcDbEntity
  8
Sketch
100
AcDbSpline
210
0
220
0
230
1
 70
8
 71
1
 72
4
 73
2
 74
0
 40
0
 40
0
 40
5511.03
 40
5511.03
 10
125.816
 20
-45.1663
 30
0
 10
111.872
 20
-43.9445
 30
0
  0
SPLINE
  5
A56
330
A02
100
AcDbEntity
  8
Sketch
100
AcDbSpline
210
0
220
0
230
1
 70
8
 71
1
 72
4
 73
2
 74
0
 40
0
 40
0
 40
5511.94
 40
5511.94
 10
110.211
 20
-62.9234
 30
0
 10
111.43
 20
-48.9763
 30
0
  0
SPLINE
  5
A57
330
A02
100
AcDbEntity
  8
Sketch
100
AcDbSpline
210
0
220
0
230
1
 70
8
 71
1
 72
4
 73
2
 74
0
 40
0
 40
0
 40
5511.94
 40
5511.94
 10
111.43
 20
-48.9763
 30
0
 10
125.377
 20
-50.1955
 30
0
  0
SPLINE
  5
A58
330
A02
100
AcDbEntity
  8
Sketch
100
AcDbSpline
210
0
220
0
230
1
 70
8
 71
1
 72
4
 73
2
 74
0
 40
0
 40
0
 40
5511.94
 40
5511.94
 10
125.377
 20
-50.1955
 30
0
 10
124.158
 20
-64.1426
 30
0
  0
SPLINE
  5
A59
330
A02
100
AcDbEntity
  8
Sketch
100
AcDbSpline
210
0
220
0
230
1
 70
8
 71
1
 72
4
 73
2
 74
0
 40
0
 40
0
 40
5511.94
 40
5511.94
 10
124.158
 20
-64.1426
 30
0
 10
110.211
 20
-62.9234
 30
0
  0
SPLINE
  5
A5A
330
A02
100
AcDbEntity
  8
Sketch
100
AcDbSpline
210
0
220
0
230
1
 70
8
 71
1
 72
4
 73
2
 74
0
 40
0
 40
0
 40
5512.03
 40
5512.03
 10
108.549
 20
-81.8998
 30
0
 10
109.771
 20
-67.9526
 30
0
  0
SPLINE
  5
A5B
330
A02
100
AcDbEntity
  8
Sketch
100
AcDbSpline
210
0
220
0
230
1
 70
8
 71
1
 72
4
 73
2
 74
0
 40
0
 40
0
 40
5511.03
 40
5511.03
 10
109.771
 20
-67.9526
 30
0
 10
123.716
 20
-69.1744
 30
0
  0
SPLINE
  5
A5C
330
A02
100
AcDbEntity
  8
Sketch
100
AcDbSpline
210
0
220
0
230
1
 70
8
 71
1
 72
4
 73
2
 74
0
 40
0
 40
0
 40
5511.94
 40
5511.94
 10
123.716
 20
-69.1744
 30
0
 10
122.497
 20
-83.1215
 30
0
  0
SPLINE
  5
A5D
330
A02
100
AcDbEntity
  8
Sketch
100
AcDbSpline
210
0
220
0
230
1
 70
8
 71
1
 72
4
 73
2
 74
0
 40
0
 40
0
 40
5512.03
 40
5512.03
 10
122.497
 20
-83.1215
 30
0
 10
108.549
 20
-81.8998
 30
0
  0
SPLINE
  5
A5E
330
A02
100
AcDbEntity
  8
Sketch
100
AcDbSpline
210
0
220
0
230
1
 70
8
 71
1
 72
4
 73
2
 74
0
 40
0
 40
0
 40
5511.94
 40
5511.94
 10
106.891
 20
-100.879
 30
0
 10
108.11
 20
-86.9315
 30
0
  0
SPLINE
  5
A5F
330
A02
100
AcDbEntity
  8
Sketch
100
AcDbSpline
210
0
220
0
230
1
 70
8
 71
1
 72
4
 73
2
 74
0
 40
0
 40
0
 40
5511.94
 40
5511.94
 10
108.11
 20
-86.9315
 30
0
 10
122.057
 20
-88.1507
 30
0
  0
SPLINE
  5
A60
330
A02
100
AcDbEntity
  8
Sketch
100
AcDbSpline
210
0
220
0
230
1
 70
8
 71
1
 72
4
 73
2
 74
0
 40
0
 40
0
 40
5512.03
 40
5512.03
 10
122.057
 20
-88.1507
 30
0
 10
120.835
 20
-102.098
 30
0
  0
SPLINE
  5
A61
330
A02
100
AcDbEntity
  8
Sketch
100
AcDbSpline
210
0
220
0
230
1
 70
8
 71
1
 72
4
 73
2
 74
0
 40
0
 40
0
 40
5510.94
 40
5510.94
 10
120.835
 20
-102.098
 30
0
 10
106.891
 20
-100.879
 30
0
  0
SPLINE
  5
A62
330
A02
100
AcDbEntity
  8
Sketch
100
AcDbSpline
210
0
220
0
230
1
 70
8
 71
1
 72
4
 73
2
 74
0
 40
0
 40
0
 40
5511.72
 40
5511.72
 10
117.041
 20
-125.57
 30
0
 10
119.471
 20
-111.783
 30
0
  0
SPLINE
  5
A63
330
A02
100
AcDbEntity
  8
Sketch
100
AcDbSpline
210
0
220
0
230
1
 70
8
 71
1
 72
4
 73
2
 74
0
 40
0
 40
0
 40
5512.7
 40
5512.7
 10
119.471
 20
-111.783
 30
0
 10
133.261
 20
-114.214
 30
0
  0
SPLINE
  5
A64
330
A02
100
AcDbEntity
  8
Sketch
100
AcDbSpline
210
0
220
0
230
1
 70
8
 71
1
 72
4
 73
2
 74
0
 40
0
 40
0
 40
5512.88
 40
5512.88
 10
133.261
 20
-114.214
 30
0
 10
130.828
 20
-128.003
 30
0
  0
SPLINE
  5
A65
330
A02
100
AcDbEntity
  8
Sketch
100
AcDbSpline
210
0
220
0
230
1
 70
8
 71
1
 72
4
 73
2
 74
0
 40
0
 40
0
 40
5511.89
 40
5511.89
 10
130.828
 20
-128.003
 30
0
 10
117.041
 20
-125.57
 30
0
  0
SPLINE
  5
A66
330
A02
100
AcDbEntity
  8
Sketch
100
AcDbSpline
210
0
220
0
230
1
 70
8
 71
1
 72
4
 73
2
 74
0
 40
0
 40
0
 40
5511.03
 40
5511.03
 10
91.6203
 20
-58.1838
 30
0
 10
92.8421
 20
-44.2392
 30
0
  0
SPLINE
  5
A67
330
A02
100
AcDbEntity
  8
Sketch
100
AcDbSpline
210
0
220
0
230
1
 70
8
 71
1
 72
4
 73
2
 74
0
 40
0
 40
0
 40
5511.94
 40
5511.94
 10
92.8421
 20
-44.2392
 30
0
 10
106.789
 20
-45.4584
 30
0
  0
SPLINE
  5
A68
330
A02
100
AcDbEntity
  8
Sketch
100
AcDbSpline
210
0
220
0
230
1
 70
8
 71
1
 72
4
 73
2
 74
0
 40
0
 40
0
 40
5512.03
 40
5512.03
 10
106.789
 20
-45.4584
 30
0
 10
105.567
 20
-59.4055
 30
0
  0
SPLINE
  5
A69
330
A02
100
AcDbEntity
  8
Sketch
100
AcDbSpline
210
0
220
0
230
1
 70
8
 71
1
 72
4
 73
2
 74
0
 40
0
 40
0
 40
5512.03
 40
5512.03
 10
105.567
 20
-59.4055
 30
0
 10
91.6203
 20
-58.1838
 30
0
  0
SPLINE
  5
A6A
330
A02
100
AcDbEntity
  8
Sketch
100
AcDbSpline
210
0
220
0
230
1
 70
8
 71
1
 72
4
 73
2
 74
0
 40
0
 40
0
 40
5511.94
 40
5511.94
 10
89.9617
 20
-77.1627
 30
0
 10
91.1809
 20
-63.2155
 30
0
  0
SPLINE
  5
A6B
330
A02
100
AcDbEntity
  8
Sketch
100
AcDbSpline
210
0
220
0
230
1
 70
8
 71
1
 72
4
 73
2
 74
0
 40
0
 40
0
 40
5511.94
 40
5511.94
 10
91.1809
 20
-63.2155
 30
0
 10
105.128
 20
-64.4347
 30
0
  0
SPLINE
  5
A6C
330
A02
100
AcDbEntity
  8
Sketch
100
AcDbSpline
210
0
220
0
230
1
 70
8
 71
1
 72
4
 73
2
 74
0
 40
0
 40
0
 40
5512.03
 40
5512.03
 10
105.128
 20
-64.4347
 30
0
 10
103.906
 20
-78.3819
 30
0
  0
SPLINE
  5
A6D
330
A02
100
AcDbEntity
  8
Sketch
100
AcDbSpline
210
0
220
0
230
1
 70
8
 71
1
 72
4
 73
2
 74
0
 40
0
 40
0
 40
5510.94
 40
5510.94
 10
103.906
 20
-78.3819
 30
0
 10
89.9617
 20
-77.1627
 30
0
  0
SPLINE
  5
A6E
330
A02
100
AcDbEntity
  8
Sketch
100
AcDbSpline
210
0
220
0
230
1
 70
8
 71
1
 72
4
 73
2
 74
0
 40
0
 40
0
 40
5510.94
 40
5510.94
 10
88.3006
 20
-96.139
 30
0
 10
89.5198
 20
-82.1944
 30
0
  0
SPLINE
  5
A6F
330
A02
100
AcDbEntity
  8
Sketch
100
AcDbSpline
210
0
220
0
230
1
 70
8
 71
1
 72
4
 73
2
 74
0
 40
0
 40
0
 40
5511.94
 40
5511.94
 10
89.5198
 20
-82.1944
 30
0
 10
103.467
 20
-83.4136
 30
0
  0
SPLINE
  5
A70
330
A02
100
AcDbEntity
  8
Sketch
100
AcDbSpline
210
0
220
0
230
1
 70
8
 71
1
 72
4
 73
2
 74
0
 40
0
 40
0
 40
5511.94
 40
5511.94
 10
103.467
 20
-83.4136
 30
0
 10
102.248
 20
-97.3607
 30
0
  0
SPLINE
  5
A71
330
A02
100
AcDbEntity
  8
Sketch
100
AcDbSpline
210
0
220
0
230
1
 70
8
 71
1
 72
4
 73
2
 74
0
 40
0
 40
0
 40
5512.03
 40
5512.03
 10
102.248
 20
-97.3607
 30
0
 10
88.3006
 20
-96.139
 30
0
  0
SPLINE
  5
A72
330
A02
100
AcDbEntity
  8
Sketch
100
AcDbSpline
210
0
220
0
230
1
 70
8
 71
1
 72
4
 73
2
 74
0
 40
0
 40
0
 40
5512
 40
5512
 10
93.3348
 20
-124.724
 30
0
 10
93.3348
 20
-110.724
 30
0
  0
SPLINE
  5
A73
330
A02
100
AcDbEntity
  8
Sketch
100
AcDbSpline
210
0
220
0
230
1
 70
8
 71
1
 72
4
 73
2
 74
0
 40
0
 40
0
 40
5511
 40
5511
 10
93.3348
 20
-110.724
 30
0
 10
107.333
 20
-110.724
 30
0
  0
SPLINE
  5
A74
330
A02
100
AcDbEntity
  8
Sketch
100
AcDbSpline
210
0
220
0
230
1
 70
8
 71
1
 72
4
 73
2
 74
0
 40
0
 40
0
 40
5512
 40
5512
 10
107.333
 20
-110.724
 30
0
 10
107.333
 20
-124.724
 30
0
  0
SPLINE
  5
A75
330
A02
100
AcDbEntity
  8
Sketch
100
AcDbSpline
210
0
220
0
230
1
 70
8
 71
1
 72
4
 73
2
 74
0
 40
0
 40
0
 40
5511
 40
5511
 10
107.333
 20
-124.724
 30
0
 10
93.3348
 20
-124.724
 30
0
  0
SPLINE
  5
A76
330
A02
100
AcDbEntity
  8
Sketch
100
AcDbSpline
210
0
220
0
230
1
 70
8
 71
1
 72
4
 73
2
 74
0
 40
0
 40
0
 40
5512
 40
5512
 10
48.575
 20
-49.5783
 30
0
 10
48.575
 20
-35.5778
 30
0
  0
SPLINE
  5
A77
330
A02
100
AcDbEntity
  8
Sketch
100
AcDbSpline
210
0
220
0
230
1
 70
8
 71
1
 72
4
 73
2
 74
0
 40
0
 40
0
 40
5512
 40
5512
 10
48.575
 20
-35.5778
 30
0
 10
62.5754
 20
-35.5778
 30
0
  0
SPLINE
  5
A78
330
A02
100
AcDbEntity
  8
Sketch
100
AcDbSpline
210
0
220
0
230
1
 70
8
 71
1
 72
4
 73
2
 74
0
 40
0
 40
0
 40
5512
 40
5512
 10
62.5754
 20
-35.5778
 30
0
 10
62.5754
 20
-49.5783
 30
0
  0
SPLINE
  5
A79
330
A02
100
AcDbEntity
  8
Sketch
100
AcDbSpline
210
0
220
0
230
1
 70
8
 71
1
 72
4
 73
2
 74
0
 40
0
 40
0
 40
5512
 40
5512
 10
62.5754
 20
-49.5783
 30
0
 10
48.575
 20
-49.5783
 30
0
  0
SPLINE
  5
A7A
330
A02
100
AcDbEntity
  8
Sketch
100
AcDbSpline
210
0
220
0
230
1
 70
8
 71
1
 72
4
 73
2
 74
0
 40
0
 40
0
 40
5512
 40
5512
 10
48.575
 20
-68.2676
 30
0
 10
48.575
 20
-54.2671
 30
0
  0
SPLINE
  5
A7B
330
A02
100
AcDbEntity
  8
Sketch
100
AcDbSpline
210
0
220
0
230
1
 70
8
 71
1
 72
4
 73
2
 74
0
 40
0
 40
0
 40
5512
 40
5512
 10
48.575
 20
-54.2671
 30
0
 10
62.5754
 20
-54.2671
 30
0
  0
SPLINE
  5
A7C
330
A02
100
AcDbEntity
  8
Sketch
100
AcDbSpline
210
0
220
0
230
1
 70
8
 71
1
 72
4
 73
2
 74
0
 40
0
 40
0
 40
5512
 40
5512
 10
62.5754
 20
-54.2671
 30
0
 10
62.5754
 20
-68.2676
 30
0
  0
SPLINE
  5
A7D
330
A02
100
AcDbEntity
  8
Sketch
100
AcDbSpline
210
0
220
0
230
1
 70
8
 71
1
 72
4
 73
2
 74
0
 40
0
 40
0
 40
5512
 40
5512
 10
62.5754
 20
-68.2676
 30
0
 10
48.575
 20
-68.2676
 30
0
  0
SPLINE
  5
A7E
330
A02
100
AcDbEntity
  8
Sketch
100
AcDbSpline
210
0
220
0
230
1
 70
8
 71
1
 72
4
 73
2
 74
0
 40
0
 40
0
 40
5512.03
 40
5512.03
 10
49.1287
 20
-89.7509
 30
0
 10
47.9069
 20
-75.8038
 30
0
  0
SPLINE
  5
A7F
330
A02
100
AcDbEntity
  8
Sketch
100
AcDbSpline
210
0
220
0
230
1
 70
8
 71
1
 72
4
 73
2
 74
0
 40
0
 40
0
 40
5512.03
 40
5512.03
 10
47.9069
 20
-75.8038
 30
0
 10
61.8541
 20
-74.582
 30
0
  0
SPLINE
  5
A80
330
A02
100
AcDbEntity
  8
Sketch
100
AcDbSpline
210
0
220
0
230
1
 70
8
 71
1
 72
4
 73
2
 74
0
 40
0
 40
0
 40
5511.94
 40
5511.94
 10
61.8541
 20
-74.582
 30
0
 10
63.0733
 20
-88.5292
 30
0
  0
SPLINE
  5
A81
330
A02
100
AcDbEntity
  8
Sketch
100
AcDbSpline
210
0
220
0
230
1
 70
8
 71
1
 72
4
 73
2
 74
0
 40
0
 40
0
 40
5511.03
 40
5511.03
 10
63.0733
 20
-88.5292
 30
0
 10
49.1287
 20
-89.7509
 30
0
  0
SPLINE
  5
A82
330
A02
100
AcDbEntity
  8
Sketch
100
AcDbSpline
210
0
220
0
230
1
 70
8
 71
1
 72
4
 73
2
 74
0
 40
0
 40
0
 40
5511.94
 40
5511.94
 10
50.7873
 20
-108.727
 30
0
 10
49.5681
 20
-94.7801
 30
0
  0
SPLINE
  5
A83
330
A02
100
AcDbEntity
  8
Sketch
100
AcDbSpline
210
0
220
0
230
1
 70
8
 71
1
 72
4
 73
2
 74
0
 40
0
 40
0
 40
5511.94
 40
5511.94
 10
49.5681
 20
-94.7801
 30
0
 10
63.5152
 20
-93.5609
 30
0
  0
SPLINE
  5
A84
330
A02
100
AcDbEntity
  8
Sketch
100
AcDbSpline
210
0
220
0
230
1
 70
8
 71
1
 72
4
 73
2
 74
0
 40
0
 40
0
 40
5511.94
 40
5511.94
 10
63.5152
 20
-93.5609
 30
0
 10
64.7344
 20
-107.508
 30
0
  0
SPLINE
  5
A85
330
A02
100
AcDbEntity
  8
Sketch
100
AcDbSpline
210
0
220
0
230
1
 70
8
 71
1
 72
4
 73
2
 74
0
 40
0
 40
0
 40
5511.94
 40
5511.94
 10
64.7344
 20
-107.508
 30
0
 10
50.7873
 20
-108.727
 30
0
  0
SPLINE
  5
A86
330
A02
100
AcDbEntity
  8
Sketch
100
AcDbSpline
210
0
220
0
230
1
 70
8
 71
1
 72
4
 73
2
 74
0
 40
0
 40
0
 40
5511.03
 40
5511.03
 10
30.2412
 20
-95.692
 30
0
 10
29.0195
 20
-81.7474
 30
0
  0
SPLINE
  5
A87
330
A02
100
AcDbEntity
  8
Sketch
100
AcDbSpline
210
0
220
0
230
1
 70
8
 71
1
 72
4
 73
2
 74
0
 40
0
 40
0
 40
5512.03
 40
5512.03
 10
29.0195
 20
-81.7474
 30
0
 10
42.9666
 20
-80.5256
 30
0
  0
SPLINE
  5
A88
330
A02
100
AcDbEntity
  8
Sketch
100
AcDbSpline
210
0
220
0
230
1
 70
8
 71
1
 72
4
 73
2
 74
0
 40
0
 40
0
 40
5511.94
 40
5511.94
 10
42.9666
 20
-80.5256
 30
0
 10
44.1858
 20
-94.4728
 30
0
  0
SPLINE
  5
A89
330
A02
100
AcDbEntity
  8
Sketch
100
AcDbSpline
210
0
220
0
230
1
 70
8
 71
1
 72
4
 73
2
 74
0
 40
0
 40
0
 40
5510.94
 40
5510.94
 10
44.1858
 20
-94.4728
 30
0
 10
30.2412
 20
-95.692
 30
0
  0
SPLINE
  5
A8A
330
A02
100
AcDbEntity
  8
Sketch
100
AcDbSpline
210
0
220
0
230
1
 70
8
 71
1
 72
4
 73
2
 74
0
 40
0
 40
0
 40
5512
 40
5512
 10
28.5979
 20
-75.1789
 30
0
 10
28.5979
 20
-61.1784
 30
0
  0
SPLINE
  5
A8B
330
A02
100
AcDbEntity
  8
Sketch
100
AcDbSpline
210
0
220
0
230
1
 70
8
 71
1
 72
4
 73
2
 74
0
 40
0
 40
0
 40
5512
 40
5512
 10
28.5979
 20
-61.1784
 30
0
 10
42.5983
 20
-61.1784
 30
0
  0
SPLINE
  5
A8C
330
A02
100
AcDbEntity
  8
Sketch
100
AcDbSpline
210
0
220
0
230
1
 70
8
 71
1
 72
4
 73
2
 74
0
 40
0
 40
0
 40
5512
 40
5512
 10
42.5983
 20
-61.1784
 30
0
 10
42.5983
 20
-75.1789
 30
0
  0
SPLINE
  5
A8D
330
A02
100
AcDbEntity
  8
Sketch
100
AcDbSpline
210
0
220
0
230
1
 70
8
 71
1
 72
4
 73
2
 74
0
 40
0
 40
0
 40
5512
 40
5512
 10
42.5983
 20
-75.1789
 30
0
 10
28.5979
 20
-75.1789
 30
0
  0
ENDSEC
  0
SECTION
  2
OBJECTS
  0
DICTIONARY
  5
F000
330
0
100
AcDbDictionary
  3
ACAD_GROUP
350
F001
  0
DICTIONARY
  5
F001
330
F000
100
AcDbDictionary
  0
ENDSEC
  0
EOF