<?xml version="1.0" standalone="no"?>
 <!DOCTYPE svg PUBLIC "-//W3C//DTD SVG 1.1//EN" 
 "http://www.w3.org/Graphics/SVG/1.1/DTD/svg11.dtd"> 
<svg
  xmlns:svg="http://www.w3.org/2000/svg"
  xmlns="http://www.w3.org/2000/svg"
  xmlns:xlink="http://www.w3.org/1999/xlink"
  version="1.1"
  width="29.700220cm" height="21.000720cm" viewBox="0 0 116930 82680">
<title>SVG Picture created as musashi60-revD-Eco1_User.svg date 2021/07/17 16:36:47 </title>
  <desc>Picture generated by PCBNEW </desc>
<g style="fill:#000000; fill-opacity:1;stroke:#000000; stroke-opacity:1;
stroke-linecap:round; stroke-linejoin:round;"
 transform="translate(0 0) scale(1 1)">
</g>
<g style="fill:#000000; fill-opacity:0.0; 
stroke:#000000; stroke-width:-0.000393701; stroke-opacity:1; 
stroke-linecap:round; stroke-linejoin:round;">
</g>
<g style="fill:#000000; fill-opacity:0.0; 
stroke:#000000; stroke-width:59.0551; stroke-opacity:1; 
stroke-linecap:round; stroke-linejoin:round;">
<circle cx="71259.8" cy="15354.3" r="590.551" /> 
<path d="M6692 15354
L16141 5905
" />
<circle cx="50393.7" cy="53937" r="590.551" /> 
<path d="M60629 13779
L71259 13779
" />
<path d="M6692 46062
L6692 15354
" />
<path d="M16141 55511
L6692 46062
" />
<path d="M16141 55511
L49606 55511
" />
<path d="M59448 65354
L49606 55511
" />
<path d="M71259 65354
L59448 65354
" />
<path d="M71259 13779
L72834 15354
" />
<path d="M72834 15354
L72834 63779
" />
<circle cx="71259.8" cy="63779.5" r="590.551" /> 
<path d="M71259 65354
L72834 63779
" />
<circle cx="51968.5" cy="7480.31" r="590.551" /> 
<path d="M52755 5905
L60629 13779
" />
<circle cx="12598.4" cy="11811" r="590.551" /> 
<path d="M16141 5905
L52755 5905
" />
<circle cx="12598.4" cy="49606.3" r="590.551" /> 
</g>
<g style="fill:#000000; fill-opacity:0.0; 
stroke:#000000; stroke-width:47.2441; stroke-opacity:1; 
stroke-linecap:round; stroke-linejoin:round;">
<path d="M64614 28220
L64226 28152
" />
<path d="M64409 29383
L64614 28220
" />
<path d="M64021 29315
L64409 29383
" />
<path d="M63999 31710
L63611 31641
" />
<path d="M63793 32873
L63999 31710
" />
<path d="M63406 32804
L63793 32873
" />
<path d="M58798 27195
L58866 26807
" />
<path d="M58410 27126
L58798 27195
" />
<path d="M58205 28289
L58410 27126
" />
<path d="M58593 28358
L58205 28289
" />
<path d="M57795 30616
L58183 30684
" />
<path d="M57590 31779
L57795 30616
" />
<path d="M57978 31847
L57590 31779
" />
</g>
<g style="fill:#000000; fill-opacity:0.0; 
stroke:#000000; stroke-width:39.3701; stroke-opacity:1; 
stroke-linecap:round; stroke-linejoin:round;">
<path d="M57909 32235
L57978 31847
" />
<path d="M63406 32804
L63337 33192
" />
<path d="M64294 27764
L64226 28152
" />
<path d="M58866 26807
L64294 27764
" />
<path d="M64021 29315
L63611 31641
" />
<path d="M63337 33192
L57909 32235
" />
<path d="M58183 30684
L58593 28358
" />
</g>
<g style="fill:#000000; fill-opacity:0.0; 
stroke:#000000; stroke-width:47.2441; stroke-opacity:1; 
stroke-linecap:round; stroke-linejoin:round;">
<path d="M62960 37630
L62573 37561
" />
<path d="M62755 38793
L62960 37630
" />
<path d="M62367 38724
L62755 38793
" />
<path d="M62345 41119
L61957 41051
" />
<path d="M62140 42282
L62345 41119
" />
<path d="M61752 42214
L62140 42282
" />
<path d="M57144 36604
L57213 36216
" />
<path d="M56757 36536
L57144 36604
" />
<path d="M56552 37699
L56757 36536
" />
<path d="M56939 37767
L56552 37699
" />
<path d="M56141 40025
L56529 40094
" />
<path d="M55936 41188
L56141 40025
" />
<path d="M56324 41257
L55936 41188
" />
</g>
<g style="fill:#000000; fill-opacity:0.0; 
stroke:#000000; stroke-width:39.3701; stroke-opacity:1; 
stroke-linecap:round; stroke-linejoin:round;">
<path d="M56256 41644
L56324 41257
" />
<path d="M61752 42214
L61684 42602
" />
<path d="M62641 37173
L62573 37561
" />
<path d="M57213 36216
L62641 37173
" />
<path d="M62367 38724
L61957 41051
" />
<path d="M61684 42602
L56256 41644
" />
<path d="M56529 40094
L56939 37767
" />
</g>
<g style="fill:#000000; fill-opacity:0.0; 
stroke:#000000; stroke-width:47.2441; stroke-opacity:1; 
stroke-linecap:round; stroke-linejoin:round;">
<path d="M69015 58430
L68737 58152
" />
<path d="M68180 59265
L69015 58430
" />
<path d="M67901 58987
L68180 59265
" />
<path d="M66510 60936
L66231 60657
" />
<path d="M65674 61771
L66510 60936
" />
<path d="M65396 61493
L65674 61771
" />
<path d="M64839 54254
L65118 53976
" />
<path d="M64561 53976
L64839 54254
" />
<path d="M63726 54811
L64561 53976
" />
<path d="M64004 55090
L63726 54811
" />
<path d="M62055 56482
L62334 56760
" />
<path d="M61220 57317
L62055 56482
" />
<path d="M61499 57595
L61220 57317
" />
</g>
<g style="fill:#000000; fill-opacity:0.0; 
stroke:#000000; stroke-width:39.3701; stroke-opacity:1; 
stroke-linecap:round; stroke-linejoin:round;">
<path d="M61220 57874
L61499 57595
" />
<path d="M65396 61493
L65118 61771
" />
<path d="M69015 57874
L68737 58152
" />
<path d="M65118 53976
L69015 57874
" />
<path d="M67901 58987
L66231 60657
" />
<path d="M65118 61771
L61220 57874
" />
<path d="M62334 56760
L64004 55090
" />
</g>
<g style="fill:#000000; fill-opacity:0.0; 
stroke:#000000; stroke-width:47.2441; stroke-opacity:1; 
stroke-linecap:round; stroke-linejoin:round;">
<path d="M56875 15478
L56482 15444
" />
<path d="M56772 16655
L56875 15478
" />
<path d="M56379 16620
L56772 16655
" />
<path d="M56566 19008
L56174 18974
" />
<path d="M56463 20185
L56566 19008
" />
<path d="M56071 20150
L56463 20185
" />
<path d="M50992 14963
L51026 14571
" />
<path d="M50599 14929
L50992 14963
" />
<path d="M50496 16106
L50599 14929
" />
<path d="M50889 16140
L50496 16106
" />
<path d="M50291 18459
L50683 18493
" />
<path d="M50188 19636
L50291 18459
" />
<path d="M50580 19670
L50188 19636
" />
</g>
<g style="fill:#000000; fill-opacity:0.0; 
stroke:#000000; stroke-width:39.3701; stroke-opacity:1; 
stroke-linecap:round; stroke-linejoin:round;">
<path d="M50545 20062
L50580 19670
" />
<path d="M56071 20150
L56036 20542
" />
<path d="M56517 15052
L56482 15444
" />
<path d="M51026 14571
L56517 15052
" />
<path d="M56379 16620
L56174 18974
" />
<path d="M56036 20542
L50545 20062
" />
<path d="M50683 18493
L50889 16140
" />
</g>
<g style="fill:#000000; fill-opacity:0.0; 
stroke:#000000; stroke-width:47.2441; stroke-opacity:1; 
stroke-linecap:round; stroke-linejoin:round;">
<path d="M56214 23025
L55822 22991
" />
<path d="M56111 24202
L56214 23025
" />
<path d="M55719 24168
L56111 24202
" />
<path d="M55905 26555
L55513 26521
" />
<path d="M55803 27732
L55905 26555
" />
<path d="M55410 27698
L55803 27732
" />
<path d="M50331 22511
L50366 22119
" />
<path d="M49939 22476
L50331 22511
" />
<path d="M49836 23653
L49939 22476
" />
<path d="M50228 23687
L49836 23653
" />
<path d="M49630 26006
L50022 26041
" />
<path d="M49527 27183
L49630 26006
" />
<path d="M49919 27217
L49527 27183
" />
</g>
<g style="fill:#000000; fill-opacity:0.0; 
stroke:#000000; stroke-width:39.3701; stroke-opacity:1; 
stroke-linecap:round; stroke-linejoin:round;">
<path d="M49885 27609
L49919 27217
" />
<path d="M55410 27698
L55376 28090
" />
<path d="M55856 22599
L55822 22991
" />
<path d="M50366 22119
L55856 22599
" />
<path d="M55719 24168
L55513 26521
" />
<path d="M55376 28090
L49885 27609
" />
<path d="M50022 26041
L50228 23687
" />
</g>
<g style="fill:#000000; fill-opacity:0.0; 
stroke:#000000; stroke-width:47.2441; stroke-opacity:1; 
stroke-linecap:round; stroke-linejoin:round;">
<path d="M55559 30515
L55167 30481
" />
<path d="M55456 31692
L55559 30515
" />
<path d="M55064 31658
L55456 31692
" />
<path d="M55250 34045
L54858 34011
" />
<path d="M55147 35222
L55250 34045
" />
<path d="M54755 35187
L55147 35222
" />
<path d="M49676 30001
L49710 29608
" />
<path d="M49284 29966
L49676 30001
" />
<path d="M49181 31143
L49284 29966
" />
<path d="M49573 31177
L49181 31143
" />
<path d="M48975 33496
L49367 33530
" />
<path d="M48872 34673
L48975 33496
" />
<path d="M49264 34707
L48872 34673
" />
</g>
<g style="fill:#000000; fill-opacity:0.0; 
stroke:#000000; stroke-width:39.3701; stroke-opacity:1; 
stroke-linecap:round; stroke-linejoin:round;">
<path d="M49230 35099
L49264 34707
" />
<path d="M54755 35187
L54721 35580
" />
<path d="M55201 30089
L55167 30481
" />
<path d="M49710 29608
L55201 30089
" />
<path d="M55064 31658
L54858 34011
" />
<path d="M54721 35580
L49230 35099
" />
<path d="M49367 33530
L49573 31177
" />
</g>
<g style="fill:#000000; fill-opacity:0.0; 
stroke:#000000; stroke-width:47.2441; stroke-opacity:1; 
stroke-linecap:round; stroke-linejoin:round;">
<path d="M54914 37893
L54521 37858
" />
<path d="M54811 39069
L54914 37893
" />
<path d="M54418 39035
L54811 39069
" />
<path d="M54605 41422
L54213 41388
" />
<path d="M54502 42599
L54605 41422
" />
<path d="M54110 42565
L54502 42599
" />
<path d="M49031 37378
L49065 36986
" />
<path d="M48638 37344
L49031 37378
" />
<path d="M48535 38520
L48638 37344
" />
<path d="M48928 38554
L48535 38520
" />
<path d="M48330 40873
L48722 40908
" />
<path d="M48227 42050
L48330 40873
" />
<path d="M48619 42084
L48227 42050
" />
</g>
<g style="fill:#000000; fill-opacity:0.0; 
stroke:#000000; stroke-width:39.3701; stroke-opacity:1; 
stroke-linecap:round; stroke-linejoin:round;">
<path d="M48584 42477
L48619 42084
" />
<path d="M54110 42565
L54075 42957
" />
<path d="M54556 37466
L54521 37858
" />
<path d="M49065 36986
L54556 37466
" />
<path d="M54418 39035
L54213 41388
" />
<path d="M54075 42957
L48584 42477
" />
<path d="M48722 40908
L48928 38554
" />
</g>
<g style="fill:#000000; fill-opacity:0.0; 
stroke:#000000; stroke-width:47.2441; stroke-opacity:1; 
stroke-linecap:round; stroke-linejoin:round;">
<path d="M62784 51546
L62462 51320
" />
<path d="M62107 52513
L62784 51546
" />
<path d="M61784 52287
L62107 52513
" />
<path d="M60752 54448
L60429 54222
" />
<path d="M60075 55416
L60752 54448
" />
<path d="M59752 55190
L60075 55416
" />
<path d="M57947 48158
L58173 47836
" />
<path d="M57624 47933
L57947 48158
" />
<path d="M56947 48900
L57624 47933
" />
<path d="M57269 49126
L56947 48900
" />
<path d="M55592 50835
L55914 51061
" />
<path d="M54915 51803
L55592 50835
" />
<path d="M55237 52028
L54915 51803
" />
</g>
<g style="fill:#000000; fill-opacity:0.0; 
stroke:#000000; stroke-width:39.3701; stroke-opacity:1; 
stroke-linecap:round; stroke-linejoin:round;">
<path d="M55011 52351
L55237 52028
" />
<path d="M59752 55190
L59526 55512
" />
<path d="M62688 50997
L62462 51320
" />
<path d="M58173 47836
L62688 50997
" />
<path d="M61784 52287
L60429 54222
" />
<path d="M59526 55512
L55011 52351
" />
<path d="M55914 51061
L57269 49126
" />
</g>
<g style="fill:#000000; fill-opacity:0.0; 
stroke:#000000; stroke-width:47.2441; stroke-opacity:1; 
stroke-linecap:round; stroke-linejoin:round;">
<path d="M49585 13111
L49193 13077
" />
<path d="M49482 14288
L49585 13111
" />
<path d="M49090 14253
L49482 14288
" />
<path d="M49276 16641
L48884 16607
" />
<path d="M49174 17818
L49276 16641
" />
<path d="M48781 17783
L49174 17818
" />
<path d="M43702 12596
L43737 12204
" />
<path d="M43310 12562
L43702 12596
" />
<path d="M43207 13739
L43310 12562
" />
<path d="M43599 13773
L43207 13739
" />
<path d="M43001 16092
L43393 16126
" />
<path d="M42898 17269
L43001 16092
" />
<path d="M43290 17303
L42898 17269
" />
</g>
<g style="fill:#000000; fill-opacity:0.0; 
stroke:#000000; stroke-width:39.3701; stroke-opacity:1; 
stroke-linecap:round; stroke-linejoin:round;">
<path d="M43256 17695
L43290 17303
" />
<path d="M48781 17783
L48747 18175
" />
<path d="M49227 12685
L49193 13077
" />
<path d="M43737 12204
L49227 12685
" />
<path d="M49090 14253
L48884 16607
" />
<path d="M48747 18175
L43256 17695
" />
<path d="M43393 16126
L43599 13773
" />
</g>
<g style="fill:#000000; fill-opacity:0.0; 
stroke:#000000; stroke-width:47.2441; stroke-opacity:1; 
stroke-linecap:round; stroke-linejoin:round;">
<path d="M48932 20583
L48539 20548
" />
<path d="M48829 21759
L48932 20583
" />
<path d="M48436 21725
L48829 21759
" />
<path d="M48623 24112
L48231 24078
" />
<path d="M48520 25289
L48623 24112
" />
<path d="M48128 25255
L48520 25289
" />
<path d="M43049 20068
L43083 19676
" />
<path d="M42656 20034
L43049 20068
" />
<path d="M42553 21210
L42656 20034
" />
<path d="M42946 21244
L42553 21210
" />
<path d="M42348 23563
L42740 23598
" />
<path d="M42245 24740
L42348 23563
" />
<path d="M42637 24774
L42245 24740
" />
</g>
<g style="fill:#000000; fill-opacity:0.0; 
stroke:#000000; stroke-width:39.3701; stroke-opacity:1; 
stroke-linecap:round; stroke-linejoin:round;">
<path d="M42602 25167
L42637 24774
" />
<path d="M48128 25255
L48093 25647
" />
<path d="M48574 20156
L48539 20548
" />
<path d="M43083 19676
L48574 20156
" />
<path d="M48436 21725
L48231 24078
" />
<path d="M48093 25647
L42602 25167
" />
<path d="M42740 23598
L42946 21244
" />
</g>
<g style="fill:#000000; fill-opacity:0.0; 
stroke:#000000; stroke-width:47.2441; stroke-opacity:1; 
stroke-linecap:round; stroke-linejoin:round;">
<path d="M48278 28054
L47886 28020
" />
<path d="M48175 29231
L48278 28054
" />
<path d="M47783 29196
L48175 29231
" />
<path d="M47969 31584
L47577 31550
" />
<path d="M47866 32760
L47969 31584
" />
<path d="M47474 32726
L47866 32760
" />
<path d="M42395 27539
L42429 27147
" />
<path d="M42003 27505
L42395 27539
" />
<path d="M41900 28682
L42003 27505
" />
<path d="M42292 28716
L41900 28682
" />
<path d="M41694 31035
L42086 31069
" />
<path d="M41591 32211
L41694 31035
" />
<path d="M41983 32246
L41591 32211
" />
</g>
<g style="fill:#000000; fill-opacity:0.0; 
stroke:#000000; stroke-width:39.3701; stroke-opacity:1; 
stroke-linecap:round; stroke-linejoin:round;">
<path d="M41949 32638
L41983 32246
" />
<path d="M47474 32726
L47440 33118
" />
<path d="M47920 27628
L47886 28020
" />
<path d="M42429 27147
L47920 27628
" />
<path d="M47783 29196
L47577 31550
" />
<path d="M47440 33118
L41949 32638
" />
<path d="M42086 31069
L42292 28716
" />
</g>
<g style="fill:#000000; fill-opacity:0.0; 
stroke:#000000; stroke-width:47.2441; stroke-opacity:1; 
stroke-linecap:round; stroke-linejoin:round;">
<path d="M47624 35525
L47232 35491
" />
<path d="M47521 36702
L47624 35525
" />
<path d="M47129 36668
L47521 36702
" />
<path d="M47315 39055
L46923 39021
" />
<path d="M47212 40232
L47315 39055
" />
<path d="M46820 40198
L47212 40232
" />
<path d="M41741 35011
L41776 34619
" />
<path d="M41349 34976
L41741 35011
" />
<path d="M41246 36153
L41349 34976
" />
<path d="M41638 36187
L41246 36153
" />
<path d="M41040 38506
L41432 38541
" />
<path d="M40937 39683
L41040 38506
" />
<path d="M41329 39717
L40937 39683
" />
</g>
<g style="fill:#000000; fill-opacity:0.0; 
stroke:#000000; stroke-width:39.3701; stroke-opacity:1; 
stroke-linecap:round; stroke-linejoin:round;">
<path d="M41295 40109
L41329 39717
" />
<path d="M46820 40198
L46786 40590
" />
<path d="M47266 35099
L47232 35491
" />
<path d="M41776 34619
L47266 35099
" />
<path d="M47129 36668
L46923 39021
" />
<path d="M46786 40590
L41295 40109
" />
<path d="M41432 38541
L41638 36187
" />
</g>
<g style="fill:#000000; fill-opacity:0.0; 
stroke:#000000; stroke-width:47.2441; stroke-opacity:1; 
stroke-linecap:round; stroke-linejoin:round;">
<path d="M52626 45816
L52239 45748
" />
<path d="M52421 46979
L52626 45816
" />
<path d="M52034 46911
L52421 46979
" />
<path d="M52011 49306
L51623 49237
" />
<path d="M51806 50469
L52011 49306
" />
<path d="M51418 50400
L51806 50469
" />
<path d="M46811 44791
L46879 44403
" />
<path d="M46423 44722
L46811 44791
" />
<path d="M46218 45886
L46423 44722
" />
<path d="M46606 45954
L46218 45886
" />
<path d="M45808 48212
L46195 48280
" />
<path d="M45602 49375
L45808 48212
" />
<path d="M45990 49443
L45602 49375
" />
</g>
<g style="fill:#000000; fill-opacity:0.0; 
stroke:#000000; stroke-width:39.3701; stroke-opacity:1; 
stroke-linecap:round; stroke-linejoin:round;">
<path d="M45922 49831
L45990 49443
" />
<path d="M51418 50400
L51350 50788
" />
<path d="M52307 45360
L52239 45748
" />
<path d="M46879 44403
L52307 45360
" />
<path d="M52034 46911
L51623 49237
" />
<path d="M51350 50788
L45922 49831
" />
<path d="M46195 48280
L46606 45954
" />
</g>
<g style="fill:#000000; fill-opacity:0.0; 
stroke:#000000; stroke-width:47.2441; stroke-opacity:1; 
stroke-linecap:round; stroke-linejoin:round;">
<path d="M42267 11246
L41874 11211
" />
<path d="M42164 12422
L42267 11246
" />
<path d="M41772 12388
L42164 12422
" />
<path d="M41958 14776
L41566 14741
" />
<path d="M41855 15952
L41958 14776
" />
<path d="M41463 15918
L41855 15952
" />
<path d="M36384 10731
L36418 10339
" />
<path d="M35991 10697
L36384 10731
" />
<path d="M35889 11873
L35991 10697
" />
<path d="M36281 11908
L35889 11873
" />
<path d="M35683 14227
L36075 14261
" />
<path d="M35580 15403
L35683 14227
" />
<path d="M35972 15437
L35580 15403
" />
</g>
<g style="fill:#000000; fill-opacity:0.0; 
stroke:#000000; stroke-width:39.3701; stroke-opacity:1; 
stroke-linecap:round; stroke-linejoin:round;">
<path d="M35938 15830
L35972 15437
" />
<path d="M41463 15918
L41428 16310
" />
<path d="M41909 10819
L41874 11211
" />
<path d="M36418 10339
L41909 10819
" />
<path d="M41772 12388
L41566 14741
" />
<path d="M41428 16310
L35938 15830
" />
<path d="M36075 14261
L36281 11908
" />
</g>
<g style="fill:#000000; fill-opacity:0.0; 
stroke:#000000; stroke-width:47.2441; stroke-opacity:1; 
stroke-linecap:round; stroke-linejoin:round;">
<path d="M41613 18717
L41221 18683
" />
<path d="M41510 19894
L41613 18717
" />
<path d="M41118 19860
L41510 19894
" />
<path d="M41304 22247
L40912 22213
" />
<path d="M41201 23424
L41304 22247
" />
<path d="M40809 23389
L41201 23424
" />
<path d="M35730 18203
L35764 17810
" />
<path d="M35338 18168
L35730 18203
" />
<path d="M35235 19345
L35338 18168
" />
<path d="M35627 19379
L35235 19345
" />
<path d="M35029 21698
L35421 21732
" />
<path d="M34926 22875
L35029 21698
" />
<path d="M35318 22909
L34926 22875
" />
</g>
<g style="fill:#000000; fill-opacity:0.0; 
stroke:#000000; stroke-width:39.3701; stroke-opacity:1; 
stroke-linecap:round; stroke-linejoin:round;">
<path d="M35284 23301
L35318 22909
" />
<path d="M40809 23389
L40775 23782
" />
<path d="M41255 18291
L41221 18683
" />
<path d="M35764 17810
L41255 18291
" />
<path d="M41118 19860
L40912 22213
" />
<path d="M40775 23782
L35284 23301
" />
<path d="M35421 21732
L35627 19379
" />
</g>
<g style="fill:#000000; fill-opacity:0.0; 
stroke:#000000; stroke-width:47.2441; stroke-opacity:1; 
stroke-linecap:round; stroke-linejoin:round;">
<path d="M40959 26189
L40567 26154
" />
<path d="M40856 27365
L40959 26189
" />
<path d="M40464 27331
L40856 27365
" />
<path d="M40651 29718
L40258 29684
" />
<path d="M40548 30895
L40651 29718
" />
<path d="M40155 30861
L40548 30895
" />
<path d="M35076 25674
L35111 25282
" />
<path d="M34684 25640
L35076 25674
" />
<path d="M34581 26816
L34684 25640
" />
<path d="M34973 26851
L34581 26816
" />
<path d="M34375 29169
L34768 29204
" />
<path d="M34272 30346
L34375 29169
" />
<path d="M34665 30380
L34272 30346
" />
</g>
<g style="fill:#000000; fill-opacity:0.0; 
stroke:#000000; stroke-width:39.3701; stroke-opacity:1; 
stroke-linecap:round; stroke-linejoin:round;">
<path d="M34630 30773
L34665 30380
" />
<path d="M40155 30861
L40121 31253
" />
<path d="M40601 25762
L40567 26154
" />
<path d="M35111 25282
L40601 25762
" />
<path d="M40464 27331
L40258 29684
" />
<path d="M40121 31253
L34630 30773
" />
<path d="M34768 29204
L34973 26851
" />
</g>
<g style="fill:#000000; fill-opacity:0.0; 
stroke:#000000; stroke-width:47.2441; stroke-opacity:1; 
stroke-linecap:round; stroke-linejoin:round;">
<path d="M40306 33660
L39913 33626
" />
<path d="M40203 34837
L40306 33660
" />
<path d="M39811 34802
L40203 34837
" />
<path d="M39997 37190
L39605 37156
" />
<path d="M39894 38367
L39997 37190
" />
<path d="M39502 38332
L39894 38367
" />
<path d="M34423 33145
L34457 32753
" />
<path d="M34030 33111
L34423 33145
" />
<path d="M33928 34288
L34030 33111
" />
<path d="M34320 34322
L33928 34288
" />
<path d="M33722 36641
L34114 36675
" />
<path d="M33619 37818
L33722 36641
" />
<path d="M34011 37852
L33619 37818
" />
</g>
<g style="fill:#000000; fill-opacity:0.0; 
stroke:#000000; stroke-width:39.3701; stroke-opacity:1; 
stroke-linecap:round; stroke-linejoin:round;">
<path d="M33977 38244
L34011 37852
" />
<path d="M39502 38332
L39467 38724
" />
<path d="M39948 33234
L39913 33626
" />
<path d="M34457 32753
L39948 33234
" />
<path d="M39811 34802
L39605 37156
" />
<path d="M39467 38724
L33977 38244
" />
<path d="M34114 36675
L34320 34322
" />
</g>
<g style="fill:#000000; fill-opacity:0.0; 
stroke:#000000; stroke-width:47.2441; stroke-opacity:1; 
stroke-linecap:round; stroke-linejoin:round;">
<path d="M42494 44379
L42100 44379
" />
<path d="M42494 45560
L42494 44379
" />
<path d="M42100 45560
L42494 45560
" />
<path d="M42494 47922
L42100 47922
" />
<path d="M42494 49104
L42494 47922
" />
<path d="M42100 49104
L42494 49104
" />
<path d="M36588 44379
L36588 43985
" />
<path d="M36194 44379
L36588 44379
" />
<path d="M36194 45560
L36194 44379
" />
<path d="M36588 45560
L36194 45560
" />
<path d="M36194 47922
L36588 47922
" />
<path d="M36194 49104
L36194 47922
" />
<path d="M36588 49104
L36194 49104
" />
</g>
<g style="fill:#000000; fill-opacity:0.0; 
stroke:#000000; stroke-width:39.3701; stroke-opacity:1; 
stroke-linecap:round; stroke-linejoin:round;">
<path d="M36588 49497
L36588 49104
" />
<path d="M42100 49104
L42100 49497
" />
<path d="M42100 43985
L42100 44379
" />
<path d="M36588 43985
L42100 43985
" />
<path d="M42100 45560
L42100 47922
" />
<path d="M42100 49497
L36588 49497
" />
<path d="M36588 47922
L36588 45560
" />
</g>
<g style="fill:#000000; fill-opacity:0.0; 
stroke:#000000; stroke-width:47.2441; stroke-opacity:1; 
stroke-linecap:round; stroke-linejoin:round;">
<path d="M32368 11698
L31975 11698
" />
<path d="M32368 12880
L32368 11698
" />
<path d="M31975 12880
L32368 12880
" />
<path d="M32368 15242
L31975 15242
" />
<path d="M32368 16423
L32368 15242
" />
<path d="M31975 16423
L32368 16423
" />
<path d="M26463 11698
L26463 11305
" />
<path d="M26069 11698
L26463 11698
" />
<path d="M26069 12880
L26069 11698
" />
<path d="M26463 12880
L26069 12880
" />
<path d="M26069 15242
L26463 15242
" />
<path d="M26069 16423
L26069 15242
" />
<path d="M26463 16423
L26069 16423
" />
</g>
<g style="fill:#000000; fill-opacity:0.0; 
stroke:#000000; stroke-width:39.3701; stroke-opacity:1; 
stroke-linecap:round; stroke-linejoin:round;">
<path d="M26463 16817
L26463 16423
" />
<path d="M31975 16423
L31975 16817
" />
<path d="M31975 11305
L31975 11698
" />
<path d="M26463 11305
L31975 11305
" />
<path d="M31975 12880
L31975 15242
" />
<path d="M31975 16817
L26463 16817
" />
<path d="M26463 15242
L26463 12880
" />
</g>
<g style="fill:#000000; fill-opacity:0.0; 
stroke:#000000; stroke-width:47.2441; stroke-opacity:1; 
stroke-linecap:round; stroke-linejoin:round;">
<path d="M32368 19199
L31975 19199
" />
<path d="M32368 20380
L32368 19199
" />
<path d="M31975 20380
L32368 20380
" />
<path d="M32368 22742
L31975 22742
" />
<path d="M32368 23923
L32368 22742
" />
<path d="M31975 23923
L32368 23923
" />
<path d="M26463 19199
L26463 18805
" />
<path d="M26069 19199
L26463 19199
" />
<path d="M26069 20380
L26069 19199
" />
<path d="M26463 20380
L26069 20380
" />
<path d="M26069 22742
L26463 22742
" />
<path d="M26069 23923
L26069 22742
" />
<path d="M26463 23923
L26069 23923
" />
</g>
<g style="fill:#000000; fill-opacity:0.0; 
stroke:#000000; stroke-width:39.3701; stroke-opacity:1; 
stroke-linecap:round; stroke-linejoin:round;">
<path d="M26463 24317
L26463 23923
" />
<path d="M31975 23923
L31975 24317
" />
<path d="M31975 18805
L31975 19199
" />
<path d="M26463 18805
L31975 18805
" />
<path d="M31975 20380
L31975 22742
" />
<path d="M31975 24317
L26463 24317
" />
<path d="M26463 22742
L26463 20380
" />
</g>
<g style="fill:#000000; fill-opacity:0.0; 
stroke:#000000; stroke-width:47.2441; stroke-opacity:1; 
stroke-linecap:round; stroke-linejoin:round;">
<path d="M32368 26699
L31975 26699
" />
<path d="M32368 27880
L32368 26699
" />
<path d="M31975 27880
L32368 27880
" />
<path d="M32368 30242
L31975 30242
" />
<path d="M32368 31423
L32368 30242
" />
<path d="M31975 31423
L32368 31423
" />
<path d="M26463 26699
L26463 26305
" />
<path d="M26069 26699
L26463 26699
" />
<path d="M26069 27880
L26069 26699
" />
<path d="M26463 27880
L26069 27880
" />
<path d="M26069 30242
L26463 30242
" />
<path d="M26069 31423
L26069 30242
" />
<path d="M26463 31423
L26069 31423
" />
</g>
<g style="fill:#000000; fill-opacity:0.0; 
stroke:#000000; stroke-width:39.3701; stroke-opacity:1; 
stroke-linecap:round; stroke-linejoin:round;">
<path d="M26463 31817
L26463 31423
" />
<path d="M31975 31423
L31975 31817
" />
<path d="M31975 26305
L31975 26699
" />
<path d="M26463 26305
L31975 26305
" />
<path d="M31975 27880
L31975 30242
" />
<path d="M31975 31817
L26463 31817
" />
<path d="M26463 30242
L26463 27880
" />
</g>
<g style="fill:#000000; fill-opacity:0.0; 
stroke:#000000; stroke-width:47.2441; stroke-opacity:1; 
stroke-linecap:round; stroke-linejoin:round;">
<path d="M32368 34199
L31975 34199
" />
<path d="M32368 35380
L32368 34199
" />
<path d="M31975 35380
L32368 35380
" />
<path d="M32368 37742
L31975 37742
" />
<path d="M32368 38923
L32368 37742
" />
<path d="M31975 38923
L32368 38923
" />
<path d="M26463 34199
L26463 33805
" />
<path d="M26069 34199
L26463 34199
" />
<path d="M26069 35380
L26069 34199
" />
<path d="M26463 35380
L26069 35380
" />
<path d="M26069 37742
L26463 37742
" />
<path d="M26069 38923
L26069 37742
" />
<path d="M26463 38923
L26069 38923
" />
</g>
<g style="fill:#000000; fill-opacity:0.0; 
stroke:#000000; stroke-width:39.3701; stroke-opacity:1; 
stroke-linecap:round; stroke-linejoin:round;">
<path d="M26463 39317
L26463 38923
" />
<path d="M31975 38923
L31975 39317
" />
<path d="M31975 33805
L31975 34199
" />
<path d="M26463 33805
L31975 33805
" />
<path d="M31975 35380
L31975 37742
" />
<path d="M31975 39317
L26463 39317
" />
<path d="M26463 37742
L26463 35380
" />
</g>
<g style="fill:#000000; fill-opacity:0.0; 
stroke:#000000; stroke-width:47.2441; stroke-opacity:1; 
stroke-linecap:round; stroke-linejoin:round;">
<path d="M24321 14657
L23927 14657
" />
<path d="M24321 15838
L24321 14657
" />
<path d="M23927 15838
L24321 15838
" />
<path d="M24321 18200
L23927 18200
" />
<path d="M24321 19381
L24321 18200
" />
<path d="M23927 19381
L24321 19381
" />
<path d="M18415 14657
L18415 14263
" />
<path d="M18021 14657
L18415 14657
" />
<path d="M18021 15838
L18021 14657
" />
<path d="M18415 15838
L18021 15838
" />
<path d="M18021 18200
L18415 18200
" />
<path d="M18021 19381
L18021 18200
" />
<path d="M18415 19381
L18021 19381
" />
</g>
<g style="fill:#000000; fill-opacity:0.0; 
stroke:#000000; stroke-width:39.3701; stroke-opacity:1; 
stroke-linecap:round; stroke-linejoin:round;">
<path d="M18415 19775
L18415 19381
" />
<path d="M23927 19381
L23927 19775
" />
<path d="M23927 14263
L23927 14657
" />
<path d="M18415 14263
L23927 14263
" />
<path d="M23927 15838
L23927 18200
" />
<path d="M23927 19775
L18415 19775
" />
<path d="M18415 18200
L18415 15838
" />
</g>
<g style="fill:#000000; fill-opacity:0.0; 
stroke:#000000; stroke-width:47.2441; stroke-opacity:1; 
stroke-linecap:round; stroke-linejoin:round;">
<path d="M24242 22156
L23848 22156
" />
<path d="M24242 23338
L24242 22156
" />
<path d="M23848 23338
L24242 23338
" />
<path d="M24242 25700
L23848 25700
" />
<path d="M24242 26881
L24242 25700
" />
<path d="M23848 26881
L24242 26881
" />
<path d="M18336 22156
L18336 21763
" />
<path d="M17943 22156
L18336 22156
" />
<path d="M17943 23338
L17943 22156
" />
<path d="M18336 23338
L17943 23338
" />
<path d="M17943 25700
L18336 25700
" />
<path d="M17943 26881
L17943 25700
" />
<path d="M18336 26881
L17943 26881
" />
</g>
<g style="fill:#000000; fill-opacity:0.0; 
stroke:#000000; stroke-width:39.3701; stroke-opacity:1; 
stroke-linecap:round; stroke-linejoin:round;">
<path d="M18336 27275
L18336 26881
" />
<path d="M23848 26881
L23848 27275
" />
<path d="M23848 21763
L23848 22156
" />
<path d="M18336 21763
L23848 21763
" />
<path d="M23848 23338
L23848 25700
" />
<path d="M23848 27275
L18336 27275
" />
<path d="M18336 25700
L18336 23338
" />
</g>
<g style="fill:#000000; fill-opacity:0.0; 
stroke:#000000; stroke-width:47.2441; stroke-opacity:1; 
stroke-linecap:round; stroke-linejoin:round;">
<path d="M23991 30115
L23599 30149
" />
<path d="M24094 31292
L23991 30115
" />
<path d="M23702 31326
L24094 31292
" />
<path d="M24300 33645
L23908 33679
" />
<path d="M24403 34821
L24300 33645
" />
<path d="M24011 34856
L24403 34821
" />
<path d="M18108 30630
L18074 30237
" />
<path d="M17716 30664
L18108 30630
" />
<path d="M17819 31841
L17716 30664
" />
<path d="M18211 31806
L17819 31841
" />
<path d="M18025 34194
L18417 34159
" />
<path d="M18128 35370
L18025 34194
" />
<path d="M18520 35336
L18128 35370
" />
</g>
<g style="fill:#000000; fill-opacity:0.0; 
stroke:#000000; stroke-width:39.3701; stroke-opacity:1; 
stroke-linecap:round; stroke-linejoin:round;">
<path d="M18554 35728
L18520 35336
" />
<path d="M24011 34856
L24045 35248
" />
<path d="M23565 29757
L23599 30149
" />
<path d="M18074 30237
L23565 29757
" />
<path d="M23702 31326
L23908 33679
" />
<path d="M24045 35248
L18554 35728
" />
<path d="M18417 34159
L18211 31806
" />
</g>
<g style="fill:#000000; fill-opacity:0.0; 
stroke:#000000; stroke-width:47.2441; stroke-opacity:1; 
stroke-linecap:round; stroke-linejoin:round;">
<path d="M24724 37586
L24331 37621
" />
<path d="M24826 38763
L24724 37586
" />
<path d="M24434 38797
L24826 38763
" />
<path d="M25032 41116
L24640 41151
" />
<path d="M25135 42293
L25032 41116
" />
<path d="M24743 42327
L25135 42293
" />
<path d="M18841 38101
L18806 37709
" />
<path d="M18448 38135
L18841 38101
" />
<path d="M18551 39312
L18448 38135
" />
<path d="M18943 39278
L18551 39312
" />
<path d="M18757 41665
L19149 41631
" />
<path d="M18860 42842
L18757 41665
" />
<path d="M19252 42808
L18860 42842
" />
</g>
<g style="fill:#000000; fill-opacity:0.0; 
stroke:#000000; stroke-width:39.3701; stroke-opacity:1; 
stroke-linecap:round; stroke-linejoin:round;">
<path d="M19287 43200
L19252 42808
" />
<path d="M24743 42327
L24777 42719
" />
<path d="M24297 37229
L24331 37621
" />
<path d="M18806 37709
L24297 37229
" />
<path d="M24434 38797
L24640 41151
" />
<path d="M24777 42719
L19287 43200
" />
<path d="M19149 41631
L18943 39278
" />
</g>
<g style="fill:#000000; fill-opacity:0.0; 
stroke:#000000; stroke-width:47.2441; stroke-opacity:1; 
stroke-linecap:round; stroke-linejoin:round;">
<path d="M16417 17551
L16023 17551
" />
<path d="M16417 18732
L16417 17551
" />
<path d="M16023 18732
L16417 18732
" />
<path d="M16417 21094
L16023 21094
" />
<path d="M16417 22275
L16417 21094
" />
<path d="M16023 22275
L16417 22275
" />
<path d="M10511 17551
L10511 17157
" />
<path d="M10118 17551
L10511 17551
" />
<path d="M10118 18732
L10118 17551
" />
<path d="M10511 18732
L10118 18732
" />
<path d="M10118 21094
L10511 21094
" />
<path d="M10118 22275
L10118 21094
" />
<path d="M10511 22275
L10118 22275
" />
</g>
<g style="fill:#000000; fill-opacity:0.0; 
stroke:#000000; stroke-width:39.3701; stroke-opacity:1; 
stroke-linecap:round; stroke-linejoin:round;">
<path d="M10511 22669
L10511 22275
" />
<path d="M16023 22275
L16023 22669
" />
<path d="M16023 17157
L16023 17551
" />
<path d="M10511 17157
L16023 17157
" />
<path d="M16023 18732
L16023 21094
" />
<path d="M16023 22669
L10511 22669
" />
<path d="M10511 21094
L10511 18732
" />
</g>
<g style="fill:#000000; fill-opacity:0.0; 
stroke:#000000; stroke-width:47.2441; stroke-opacity:1; 
stroke-linecap:round; stroke-linejoin:round;">
<path d="M16417 25051
L16023 25051
" />
<path d="M16417 26232
L16417 25051
" />
<path d="M16023 26232
L16417 26232
" />
<path d="M16417 28594
L16023 28594
" />
<path d="M16417 29775
L16417 28594
" />
<path d="M16023 29775
L16417 29775
" />
<path d="M10511 25051
L10511 24657
" />
<path d="M10118 25051
L10511 25051
" />
<path d="M10118 26232
L10118 25051
" />
<path d="M10511 26232
L10118 26232
" />
<path d="M10118 28594
L10511 28594
" />
<path d="M10118 29775
L10118 28594
" />
<path d="M10511 29775
L10118 29775
" />
</g>
<g style="fill:#000000; fill-opacity:0.0; 
stroke:#000000; stroke-width:39.3701; stroke-opacity:1; 
stroke-linecap:round; stroke-linejoin:round;">
<path d="M10511 30169
L10511 29775
" />
<path d="M16023 29775
L16023 30169
" />
<path d="M16023 24657
L16023 25051
" />
<path d="M10511 24657
L16023 24657
" />
<path d="M16023 26232
L16023 28594
" />
<path d="M16023 30169
L10511 30169
" />
<path d="M10511 28594
L10511 26232
" />
</g>
<g style="fill:#000000; fill-opacity:0.0; 
stroke:#000000; stroke-width:47.2441; stroke-opacity:1; 
stroke-linecap:round; stroke-linejoin:round;">
<path d="M16516 32533
L16124 32568
" />
<path d="M16619 33710
L16516 32533
" />
<path d="M16227 33744
L16619 33710
" />
<path d="M16825 36063
L16432 36098
" />
<path d="M16928 37240
L16825 36063
" />
<path d="M16535 37274
L16928 37240
" />
<path d="M10633 33048
L10598 32656
" />
<path d="M10241 33082
L10633 33048
" />
<path d="M10343 34259
L10241 33082
" />
<path d="M10736 34225
L10343 34259
" />
<path d="M10549 36612
L10942 36578
" />
<path d="M10652 37789
L10549 36612
" />
<path d="M11045 37755
L10652 37789
" />
</g>
<g style="fill:#000000; fill-opacity:0.0; 
stroke:#000000; stroke-width:39.3701; stroke-opacity:1; 
stroke-linecap:round; stroke-linejoin:round;">
<path d="M11079 38147
L11045 37755
" />
<path d="M16535 37274
L16570 37666
" />
<path d="M16089 32176
L16124 32568
" />
<path d="M10598 32656
L16089 32176
" />
<path d="M16227 33744
L16432 36098
" />
<path d="M16570 37666
L11079 38147
" />
<path d="M10942 36578
L10736 34225
" />
</g>
<g style="fill:#000000; fill-opacity:0.0; 
stroke:#000000; stroke-width:47.2441; stroke-opacity:1; 
stroke-linecap:round; stroke-linejoin:round;">
<path d="M17169 40005
L16777 40039
" />
<path d="M17272 41182
L17169 40005
" />
<path d="M16880 41216
L17272 41182
" />
<path d="M17478 43535
L17086 43569
" />
<path d="M17581 44711
L17478 43535
" />
<path d="M17189 44746
L17581 44711
" />
<path d="M11286 40520
L11252 40127
" />
<path d="M10894 40554
L11286 40520
" />
<path d="M10997 41731
L10894 40554
" />
<path d="M11389 41696
L10997 41731
" />
<path d="M11203 44084
L11595 44049
" />
<path d="M11306 45260
L11203 44084
" />
<path d="M11698 45226
L11306 45260
" />
</g>
<g style="fill:#000000; fill-opacity:0.0; 
stroke:#000000; stroke-width:39.3701; stroke-opacity:1; 
stroke-linecap:round; stroke-linejoin:round;">
<path d="M11733 45618
L11698 45226
" />
<path d="M17189 44746
L17223 45138
" />
<path d="M16743 39647
L16777 40039
" />
<path d="M11252 40127
L16743 39647
" />
<path d="M16880 41216
L17086 43569
" />
<path d="M17223 45138
L11733 45618
" />
<path d="M11595 44049
L11389 41696
" />
</g>
<g style="fill:#000000; fill-opacity:0.0; 
stroke:#000000; stroke-width:47.2441; stroke-opacity:1; 
stroke-linecap:round; stroke-linejoin:round;">
<path d="M64271 34525
L69271 34525
" />
<path d="M64271 50025
L64271 34525
" />
<path d="M69271 50025
L64271 50025
" />
<path d="M69271 34525
L69271 50025
" />
<g >
</g>
<g >
</g>
<g >
</g>
<g >
</g>
<g >
</g>
<g >
</g>
<g >
</g>
<g >
</g>
<g >
</g>
<g >
</g>
<g >
</g>
<g >
</g>
<g >
</g>
<g >
</g>
<g >
</g>
<g >
</g>
<g >
</g>
<g >
</g>
<g >
</g>
<g >
</g>
<g >
</g>
<g >
</g>
<g >
</g>
<g >
</g>
<g >
</g>
<g >
</g>
<g >
</g>
<g >
</g>
<g >
</g>
<g >
</g>
<g >
</g>
<g >
</g>
<g >
</g>
<g >
</g>
<g >
</g>
<g >
</g>
<g >
</g>
<g >
</g>
<g >
</g>
<g >
</g>
<g >
</g>
<g >
</g>
<g >
</g>
<g >
</g>
<g >
</g>
<g >
</g>
<g >
</g>
<g >
</g>
<g >
</g>
<g >
</g>
<g >
</g>
<g >
</g>
<g >
</g>
<g >
</g>
<g >
</g>
<g >
</g>
<g >
</g>
<g >
</g>
<g >
</g>
<g >
</g>
<g >
</g>
<g >
</g>
<g >
</g>
<g >
</g>
<g >
</g>
<g >
</g>
<g >
</g>
<g >
</g>
<g >
</g>
</g> 
</svg>
