<?xml version="1.0" standalone="no"?>
 <!DOCTYPE svg PUBLIC "-//W3C//DTD SVG 1.1//EN" 
 "http://www.w3.org/Graphics/SVG/1.1/DTD/svg11.dtd"> 
<svg
  xmlns:svg="http://www.w3.org/2000/svg"
  xmlns="http://www.w3.org/2000/svg"
  xmlns:xlink="http://www.w3.org/1999/xlink"
  version="1.1"
  width="29.700220cm" height="21.000720cm" viewBox="0 0 116930 82680">
<title>SVG Picture created as musashi60-revD-Eco2_User.svg date 2021/07/17 16:36:47 </title>
  <desc>Picture generated by PCBNEW </desc>
<g style="fill:#000000; fill-opacity:1;stroke:#000000; stroke-opacity:1;
stroke-linecap:round; stroke-linejoin:round;"
 transform="translate(0 0) scale(1 1)">
</g>
<g style="fill:#000000; fill-opacity:0.0; 
stroke:#000000; stroke-width:-0.000393701; stroke-opacity:1; 
stroke-linecap:round; stroke-linejoin:round;">
</g>
<g style="fill:#000000; fill-opacity:0.0; 
stroke:#000000; stroke-width:59.0551; stroke-opacity:1; 
stroke-linecap:round; stroke-linejoin:round;">
<path d="M75196 26771
L75196 31496
" />
<path d="M13484 10925
L16929 7480
" />
<path d="M8267 16141
L11712 12696
" />
<path d="M70078.7 15354.3 A1181.1 1181.1 0.0 0 0 71259.8 16535.4" />
<path d="M5905 14960
L15748 5118
" />
<path d="M11712.6 12696.9 A1252.75 1252.75 0.0 0 0 13484.3 10925.2" />
<path d="M51259.8 54803.1 A1224.91 1224.91 0.0 1 0 49168.8 53937" />
<path d="M16929 53937
L13484 50492
" />
<path d="M13484.3 50492.1 A1252.75 1252.75 0.0 0 0 11712.6 48720.5" />
<path d="M50787.4 7480.31 A1181.1 1181.1 0.0 0 0 52803.7 8315.48" />
<path d="M71259.8 62598.4 A1181.1 1181.1 0.0 0 0 70078.7 63779.5" />
<path d="M61023 12992
L71653 12992
" />
<path d="M71653 12992
L73622 14960
" />
<path d="M53149 5118
L61023 12992
" />
<path d="M15748 5118
L53149 5118
" />
<path d="M71653 66141
L73622 64173
" />
<path d="M73622 14960
L73622 64173
" />
<path d="M59842 15354
L70078 15354
" />
<path d="M61023 12204
L70078 12204
" />
<path d="M71259 16535
L71259 62598
" />
<path d="M8267 45275
L8267 16141
" />
<path d="M16929 7480
L50787 7480
" />
<path d="M52803 8315
L59842 15354
" />
<path d="M70078 63787
L60236 63779
" />
<path d="M60236 63779
L51259 54803
" />
<path d="M16929 53937
L49173 53937
" />
<path d="M11712 48720
L8267 45275
" />
<path d="M59055 66141
L49212 56299
" />
<path d="M71653 66141
L59055 66141
" />
<path d="M5905 46456
L5905 14960
" />
<path d="M15748 56299
L5905 46456
" />
<path d="M15748 56299
L49212 56299
" />
<g >
</g>
<g >
</g>
<g >
</g>
<g >
</g>
<g >
</g>
<g >
</g>
<g >
</g>
<g >
</g>
<g >
</g>
<g >
</g>
<g >
</g>
<g >
</g>
<g >
</g>
<g >
</g>
<g >
</g>
<g >
</g>
<g >
</g>
<g >
</g>
<g >
</g>
<g >
</g>
<g >
</g>
<g >
</g>
<g >
</g>
<g >
</g>
<g >
</g>
<g >
</g>
<g >
</g>
<g >
</g>
<g >
</g>
<g >
</g>
<g >
</g>
<g >
</g>
<g >
</g>
<g >
</g>
<g >
</g>
<g >
</g>
<g >
</g>
<g >
</g>
<g >
</g>
<g >
</g>
<g >
</g>
<g >
</g>
<g >
</g>
<g >
</g>
<g >
</g>
<g >
</g>
<g >
</g>
<g >
</g>
<g >
</g>
<g >
</g>
<g >
</g>
<g >
</g>
<g >
</g>
<g >
</g>
<g >
</g>
<g >
</g>
<g >
</g>
<g >
</g>
<g >
</g>
<g >
</g>
<g >
</g>
<g >
</g>
<g >
</g>
<g >
</g>
<g >
</g>
<g >
</g>
<g >
</g>
<g >
</g>
<g >
</g>
</g> 
</svg>
