solid OpenSCAD_Model
  facet normal 0 0 1
    outer loop
      vertex 17 19.9 0
      vertex 12.9 19.9 0
      vertex 17 19 0
    endloop
  endfacet
  facet normal 0 0 1
    outer loop
      vertex 27.1 34.1 0
      vertex 23 35 0
      vertex 23 34.1 0
    endloop
  endfacet
  facet normal 0 0 1
    outer loop
      vertex 36 16.9 0
      vertex 31.9 16.9 0
      vertex 36 16 0
    endloop
  endfacet
  facet normal 0 0 1
    outer loop
      vertex 69.1002 21.7565 0
      vertex 65.2474 20.3542 0
      vertex 65.5552 19.5085 0
    endloop
  endfacet
  facet normal 0 0 1
    outer loop
      vertex 54.7526 31.6458 0
      vertex 54.4448 32.4915 0
      vertex 50.8998 30.2435 0
    endloop
  endfacet
  facet normal 0 0 1
    outer loop
      vertex 46.1 31.1 0
      vertex 42 32 0
      vertex 42 31.1 0
    endloop
  endfacet
  facet normal -0 0 1
    outer loop
      vertex 69.8 47.6144 0
      vertex 75.1558 45.0567 0
      vertex 70.6 49 0
    endloop
  endfacet
  facet normal 0 0 1
    outer loop
      vertex 75.1558 45.0567 0
      vertex 69.8 47.6144 0
      vertex 70.5596 41.2 0
    endloop
  endfacet
  facet normal -0 0 1
    outer loop
      vertex 68.2 47.6144 0
      vertex 70.5596 41.2 0
      vertex 69.8 47.6144 0
    endloop
  endfacet
  facet normal 0 0 1
    outer loop
      vertex 70.5596 41.2 0
      vertex 67.9973 37.8751 0
      vertex 71.1381 40.5106 0
    endloop
  endfacet
  facet normal 0 0 1
    outer loop
      vertex 68.2 47.6144 0
      vertex 67.9973 37.8751 0
      vertex 70.5596 41.2 0
    endloop
  endfacet
  facet normal 0 0 1
    outer loop
      vertex 60.0829 34.5436 0
      vertex 68.2 47.6144 0
      vertex 67.4 49 0
    endloop
  endfacet
  facet normal -0 0 1
    outer loop
      vertex 64.2435 35.1002 0
      vertex 77.1249 26.9973 0
      vertex 67.9973 37.8751 0
    endloop
  endfacet
  facet normal 0 0 1
    outer loop
      vertex 77.1249 26.9973 0
      vertex 64.2435 35.1002 0
      vertex 69.1002 21.7565 0
    endloop
  endfacet
  facet normal 0 0 1
    outer loop
      vertex 68.2 47.6144 0
      vertex 64.2435 35.1002 0
      vertex 67.9973 37.8751 0
    endloop
  endfacet
  facet normal 0 0 1
    outer loop
      vertex 88.0027 36.1249 0
      vertex 84.8619 33.4894 0
      vertex 85.4404 32.8 0
    endloop
  endfacet
  facet normal 0 0 1
    outer loop
      vertex 82 52 0
      vertex 88.0027 36.1249 0
      vertex 98 32 0
    endloop
  endfacet
  facet normal 0 0 1
    outer loop
      vertex 82 52 0
      vertex 78.8751 47.0027 0
      vertex 88.0027 36.1249 0
    endloop
  endfacet
  facet normal -0 0 1
    outer loop
      vertex 70.6 49 0
      vertex 78.8751 47.0027 0
      vertex 82 52 0
    endloop
  endfacet
  facet normal 0 0 1
    outer loop
      vertex 78.8751 47.0027 0
      vertex 75.1558 45.0567 0
      vertex 75.7343 44.3673 0
    endloop
  endfacet
  facet normal 0 0 1
    outer loop
      vertex 78.8751 47.0027 0
      vertex 70.6 49 0
      vertex 75.1558 45.0567 0
    endloop
  endfacet
  facet normal 0 0 1
    outer loop
      vertex 82 52 0
      vertex 69.8 50.3856 0
      vertex 70.6 49 0
    endloop
  endfacet
  facet normal -0 0 1
    outer loop
      vertex 68 52 0
      vertex 69.8 50.3856 0
      vertex 82 52 0
    endloop
  endfacet
  facet normal 0 0 1
    outer loop
      vertex 69.8 50.3856 0
      vertex 68 52 0
      vertex 68.2 50.3856 0
    endloop
  endfacet
  facet normal 0 0 1
    outer loop
      vertex 68 52 0
      vertex 67.4 49 0
      vertex 68.2 50.3856 0
    endloop
  endfacet
  facet normal 0 0 1
    outer loop
      vertex 42 32 0
      vertex 67.4 49 0
      vertex 68 52 0
    endloop
  endfacet
  facet normal 0 0 1
    outer loop
      vertex 68.2 47.6144 0
      vertex 60.0829 34.5436 0
      vertex 64.2435 35.1002 0
    endloop
  endfacet
  facet normal 0 0 1
    outer loop
      vertex 64.2435 35.1002 0
      vertex 60.0829 34.5436 0
      vertex 60.3907 33.6979 0
    endloop
  endfacet
  facet normal 0 0 1
    outer loop
      vertex 67.4 49 0
      vertex 54.4448 32.4915 0
      vertex 60.0829 34.5436 0
    endloop
  endfacet
  facet normal 0 0 1
    outer loop
      vertex 67.4 49 0
      vertex 42 32 0
      vertex 54.4448 32.4915 0
    endloop
  endfacet
  facet normal 0 0 1
    outer loop
      vertex 54.4448 32.4915 0
      vertex 46.1 31.1 0
      vertex 50.8998 30.2435 0
    endloop
  endfacet
  facet normal 0 0 1
    outer loop
      vertex 54.4448 32.4915 0
      vertex 42 32 0
      vertex 46.1 31.1 0
    endloop
  endfacet
  facet normal 0 0 1
    outer loop
      vertex 68 52 0
      vertex 36 32 0
      vertex 42 32 0
    endloop
  endfacet
  facet normal 0 0 1
    outer loop
      vertex 36 32 0
      vertex 31.9 31.1 0
      vertex 36 31.1 0
    endloop
  endfacet
  facet normal -0 0 1
    outer loop
      vertex 27.1 34.1 0
      vertex 36 32 0
      vertex 68 52 0
    endloop
  endfacet
  facet normal 0 0 1
    outer loop
      vertex 27.1 19.9 0
      vertex 31.9 31.1 0
      vertex 27.1 34.1 0
    endloop
  endfacet
  facet normal 0 0 1
    outer loop
      vertex 36 32 0
      vertex 27.1 34.1 0
      vertex 31.9 31.1 0
    endloop
  endfacet
  facet normal 0 0 1
    outer loop
      vertex 68 52 0
      vertex 23 35 0
      vertex 27.1 34.1 0
    endloop
  endfacet
  facet normal 0 0 1
    outer loop
      vertex 68 52 0
      vertex 17 35 0
      vertex 23 35 0
    endloop
  endfacet
  facet normal 0 0 1
    outer loop
      vertex 17 35 0
      vertex 12.9 34.1 0
      vertex 17 34.1 0
    endloop
  endfacet
  facet normal -0 0 1
    outer loop
      vertex 2 36 0
      vertex 17 35 0
      vertex 68 52 0
    endloop
  endfacet
  facet normal 0 0 1
    outer loop
      vertex 12.9 34.1 0
      vertex 7.6 24 0
      vertex 12.9 19.9 0
    endloop
  endfacet
  facet normal 0 0 1
    outer loop
      vertex 12.9 34.1 0
      vertex 6.8 25.3856 0
      vertex 7.6 24 0
    endloop
  endfacet
  facet normal 0 0 1
    outer loop
      vertex 2 36 0
      vertex 6.8 25.3856 0
      vertex 12.9 34.1 0
    endloop
  endfacet
  facet normal 0 0 1
    outer loop
      vertex 5.2 25.3856 0
      vertex 2 36 0
      vertex 4.4 24 0
    endloop
  endfacet
  facet normal 0 0 1
    outer loop
      vertex 6.8 25.3856 0
      vertex 2 36 0
      vertex 5.2 25.3856 0
    endloop
  endfacet
  facet normal 0 0 1
    outer loop
      vertex 17 35 0
      vertex 2 36 0
      vertex 12.9 34.1 0
    endloop
  endfacet
  facet normal -0 0 1
    outer loop
      vertex 85.4404 32.8 0
      vertex 98 32 0
      vertex 88.0027 36.1249 0
    endloop
  endfacet
  facet normal 0 0 1
    outer loop
      vertex 80.8 17.3856 0
      vertex 98 32 0
      vertex 85.4404 32.8 0
    endloop
  endfacet
  facet normal 0 0 1
    outer loop
      vertex 98 32 0
      vertex 81.6 16 0
      vertex 82 12 0
    endloop
  endfacet
  facet normal 0 0 1
    outer loop
      vertex 80.8 17.3856 0
      vertex 85.4404 32.8 0
      vertex 80.8442 28.9433 0
    endloop
  endfacet
  facet normal 0 0 1
    outer loop
      vertex 98 32 0
      vertex 80.8 17.3856 0
      vertex 81.6 16 0
    endloop
  endfacet
  facet normal 0 0 1
    outer loop
      vertex 77.1249 26.9973 0
      vertex 80.8442 28.9433 0
      vertex 80.2657 29.6327 0
    endloop
  endfacet
  facet normal 0 0 1
    outer loop
      vertex 80.8442 28.9433 0
      vertex 77.1249 26.9973 0
      vertex 80.8 17.3856 0
    endloop
  endfacet
  facet normal 0 0 1
    outer loop
      vertex 80.8 17.3856 0
      vertex 77.1249 26.9973 0
      vertex 79.2 17.3856 0
    endloop
  endfacet
  facet normal -0 0 1
    outer loop
      vertex 69.1002 21.7565 0
      vertex 79.2 17.3856 0
      vertex 77.1249 26.9973 0
    endloop
  endfacet
  facet normal -0 0 1
    outer loop
      vertex 80.8 14.6144 0
      vertex 82 12 0
      vertex 81.6 16 0
    endloop
  endfacet
  facet normal -0 0 1
    outer loop
      vertex 79.2 14.6144 0
      vertex 82 12 0
      vertex 80.8 14.6144 0
    endloop
  endfacet
  facet normal 0 0 1
    outer loop
      vertex 79.2 17.3856 0
      vertex 69.1002 21.7565 0
      vertex 78.4 16 0
    endloop
  endfacet
  facet normal -0 0 1
    outer loop
      vertex 65.5552 19.5085 0
      vertex 78.4 16 0
      vertex 69.1002 21.7565 0
    endloop
  endfacet
  facet normal 0 0 1
    outer loop
      vertex 78.4 16 0
      vertex 65.5552 19.5085 0
      vertex 79.2 14.6144 0
    endloop
  endfacet
  facet normal -0 0 1
    outer loop
      vertex 59.9171 17.4564 0
      vertex 79.2 14.6144 0
      vertex 65.5552 19.5085 0
    endloop
  endfacet
  facet normal 0 0 1
    outer loop
      vertex 79.2 14.6144 0
      vertex 59.9171 17.4564 0
      vertex 82 12 0
    endloop
  endfacet
  facet normal 0 0 1
    outer loop
      vertex 55.7565 16.8998 0
      vertex 59.9171 17.4564 0
      vertex 59.6093 18.3021 0
    endloop
  endfacet
  facet normal -0 0 1
    outer loop
      vertex 55.7565 16.8998 0
      vertex 82 12 0
      vertex 59.9171 17.4564 0
    endloop
  endfacet
  facet normal 0 0 1
    outer loop
      vertex 46.1 16.9 0
      vertex 50.8998 30.2435 0
      vertex 46.1 31.1 0
    endloop
  endfacet
  facet normal 0 0 1
    outer loop
      vertex 50.8998 30.2435 0
      vertex 46.1 16.9 0
      vertex 55.7565 16.8998 0
    endloop
  endfacet
  facet normal 0 0 1
    outer loop
      vertex 42 16 0
      vertex 55.7565 16.8998 0
      vertex 46.1 16.9 0
    endloop
  endfacet
  facet normal 0 0 1
    outer loop
      vertex 42 16 0
      vertex 46.1 16.9 0
      vertex 42 16.9 0
    endloop
  endfacet
  facet normal 0 0 1
    outer loop
      vertex 55.7565 16.8998 0
      vertex 42 16 0
      vertex 82 12 0
    endloop
  endfacet
  facet normal 0 0 1
    outer loop
      vertex 2 12 0
      vertex 42 16 0
      vertex 36 16 0
    endloop
  endfacet
  facet normal 0 0 1
    outer loop
      vertex 31.9 31.1 0
      vertex 27.1 19.9 0
      vertex 31.9 16.9 0
    endloop
  endfacet
  facet normal 0 0 1
    outer loop
      vertex 23 19 0
      vertex 27.1 19.9 0
      vertex 23 19.9 0
    endloop
  endfacet
  facet normal 0 0 1
    outer loop
      vertex 27.1 19.9 0
      vertex 23 19 0
      vertex 31.9 16.9 0
    endloop
  endfacet
  facet normal 0 0 1
    outer loop
      vertex 2 12 0
      vertex 23 19 0
      vertex 17 19 0
    endloop
  endfacet
  facet normal 0 0 1
    outer loop
      vertex 23 19 0
      vertex 2 12 0
      vertex 31.9 16.9 0
    endloop
  endfacet
  facet normal -0 0 1
    outer loop
      vertex 6.8 22.6144 0
      vertex 12.9 19.9 0
      vertex 7.6 24 0
    endloop
  endfacet
  facet normal 0 0 1
    outer loop
      vertex 2 12 0
      vertex 6.8 22.6144 0
      vertex 5.2 22.6144 0
    endloop
  endfacet
  facet normal 0 0 1
    outer loop
      vertex 42 16 0
      vertex 2 12 0
      vertex 82 12 0
    endloop
  endfacet
  facet normal 0 0 1
    outer loop
      vertex 31.9 16.9 0
      vertex 2 12 0
      vertex 36 16 0
    endloop
  endfacet
  facet normal 0 0 1
    outer loop
      vertex 12.9 19.9 0
      vertex 2 12 0
      vertex 17 19 0
    endloop
  endfacet
  facet normal 0 0 1
    outer loop
      vertex 6.8 22.6144 0
      vertex 2 12 0
      vertex 12.9 19.9 0
    endloop
  endfacet
  facet normal 0 0 1
    outer loop
      vertex 4.4 24 0
      vertex 2 12 0
      vertex 5.2 22.6144 0
    endloop
  endfacet
  facet normal 0 0 1
    outer loop
      vertex 2 12 0
      vertex 4.4 24 0
      vertex 2 36 0
    endloop
  endfacet
  facet normal -1 0 0
    outer loop
      vertex 27.1 19.9 -2
      vertex 27.1 34.1 0
      vertex 27.1 34.1 -2
    endloop
  endfacet
  facet normal -1 -0 0
    outer loop
      vertex 27.1 34.1 0
      vertex 27.1 19.9 -2
      vertex 27.1 19.9 0
    endloop
  endfacet
  facet normal 0 0 -1
    outer loop
      vertex 78.8751 47.0027 -2
      vertex 69.8 47.6144 -2
      vertex 70.6 49 -2
    endloop
  endfacet
  facet normal 0 0 -1
    outer loop
      vertex 67.9973 37.8751 -2
      vertex 69.8 47.6144 -2
      vertex 78.8751 47.0027 -2
    endloop
  endfacet
  facet normal -0 0 -1
    outer loop
      vertex 69.8 47.6144 -2
      vertex 67.9973 37.8751 -2
      vertex 68.2 47.6144 -2
    endloop
  endfacet
  facet normal 0 0 -1
    outer loop
      vertex 64.2435 35.1002 -2
      vertex 68.2 47.6144 -2
      vertex 67.9973 37.8751 -2
    endloop
  endfacet
  facet normal 0 0 -1
    outer loop
      vertex 82 12 -2
      vertex 80.8 14.6144 -2
      vertex 81.6 16 -2
    endloop
  endfacet
  facet normal 0 0 -1
    outer loop
      vertex 82 12 -2
      vertex 79.2 14.6144 -2
      vertex 80.8 14.6144 -2
    endloop
  endfacet
  facet normal 0 0 -1
    outer loop
      vertex 79.2 17.3856 -2
      vertex 69.1002 21.7565 -2
      vertex 77.1249 26.9973 -2
    endloop
  endfacet
  facet normal 0 0 -1
    outer loop
      vertex 79.2 14.6144 -2
      vertex 69.1002 21.7565 -2
      vertex 78.4 16 -2
    endloop
  endfacet
  facet normal 0 0 -1
    outer loop
      vertex 55.7565 16.8998 -2
      vertex 79.2 14.6144 -2
      vertex 82 12 -2
    endloop
  endfacet
  facet normal 0 0 -1
    outer loop
      vertex 79.2 14.6144 -2
      vertex 55.7565 16.8998 -2
      vertex 69.1002 21.7565 -2
    endloop
  endfacet
  facet normal 0 0 -1
    outer loop
      vertex 55.7565 16.8998 -2
      vertex 46.1 16.9 -2
      vertex 50.8998 30.2435 -2
    endloop
  endfacet
  facet normal 0 0 -1
    outer loop
      vertex 82 12 -2
      vertex 46.1 16.9 -2
      vertex 55.7565 16.8998 -2
    endloop
  endfacet
  facet normal 0 0 -1
    outer loop
      vertex 2 12 -2
      vertex 46.1 16.9 -2
      vertex 82 12 -2
    endloop
  endfacet
  facet normal 0 0 -1
    outer loop
      vertex 31.9 16.9 -2
      vertex 27.1 19.9 -2
      vertex 31.9 31.1 -2
    endloop
  endfacet
  facet normal 0 0 -1
    outer loop
      vertex 31.9 16.9 -2
      vertex 12.9 19.9 -2
      vertex 27.1 19.9 -2
    endloop
  endfacet
  facet normal 0 0 -1
    outer loop
      vertex 12.9 19.9 -2
      vertex 7.6 24 -2
      vertex 12.9 34.1 -2
    endloop
  endfacet
  facet normal 0 0 -1
    outer loop
      vertex 12.9 19.9 -2
      vertex 6.8 22.6144 -2
      vertex 7.6 24 -2
    endloop
  endfacet
  facet normal 0 0 -1
    outer loop
      vertex 2 12 -2
      vertex 6.8 22.6144 -2
      vertex 12.9 19.9 -2
    endloop
  endfacet
  facet normal -0 0 -1
    outer loop
      vertex 5.2 22.6144 -2
      vertex 2 12 -2
      vertex 4.4 24 -2
    endloop
  endfacet
  facet normal -0 0 -1
    outer loop
      vertex 6.8 22.6144 -2
      vertex 2 12 -2
      vertex 5.2 22.6144 -2
    endloop
  endfacet
  facet normal -0 0 -1
    outer loop
      vertex 31.9 16.9 -2
      vertex 2 12 -2
      vertex 12.9 19.9 -2
    endloop
  endfacet
  facet normal -0 0 -1
    outer loop
      vertex 46.1 16.9 -2
      vertex 2 12 -2
      vertex 31.9 16.9 -2
    endloop
  endfacet
  facet normal 0 0 -1
    outer loop
      vertex 81.6 16 -2
      vertex 98 32 -2
      vertex 82 12 -2
    endloop
  endfacet
  facet normal 0 0 -1
    outer loop
      vertex 80.8 17.3856 -2
      vertex 98 32 -2
      vertex 81.6 16 -2
    endloop
  endfacet
  facet normal -0 0 -1
    outer loop
      vertex 98 32 -2
      vertex 80.8 17.3856 -2
      vertex 88.0027 36.1249 -2
    endloop
  endfacet
  facet normal 0 0 -1
    outer loop
      vertex 77.1249 26.9973 -2
      vertex 80.8 17.3856 -2
      vertex 79.2 17.3856 -2
    endloop
  endfacet
  facet normal 0 0 -1
    outer loop
      vertex 69.1002 21.7565 -2
      vertex 79.2 17.3856 -2
      vertex 78.4 16 -2
    endloop
  endfacet
  facet normal 0 0 -1
    outer loop
      vertex 80.8 17.3856 -2
      vertex 77.1249 26.9973 -2
      vertex 88.0027 36.1249 -2
    endloop
  endfacet
  facet normal 0 0 -1
    outer loop
      vertex 88.0027 36.1249 -2
      vertex 82 52 -2
      vertex 98 32 -2
    endloop
  endfacet
  facet normal 0 0 -1
    outer loop
      vertex 78.8751 47.0027 -2
      vertex 82 52 -2
      vertex 88.0027 36.1249 -2
    endloop
  endfacet
  facet normal 0 0 -1
    outer loop
      vertex 70.6 49 -2
      vertex 82 52 -2
      vertex 78.8751 47.0027 -2
    endloop
  endfacet
  facet normal 0 0 -1
    outer loop
      vertex 69.8 50.3856 -2
      vertex 82 52 -2
      vertex 70.6 49 -2
    endloop
  endfacet
  facet normal 0 0 -1
    outer loop
      vertex 68 52 -2
      vertex 69.8 50.3856 -2
      vertex 68.2 50.3856 -2
    endloop
  endfacet
  facet normal 0 0 -1
    outer loop
      vertex 69.8 50.3856 -2
      vertex 68 52 -2
      vertex 82 52 -2
    endloop
  endfacet
  facet normal 0 0 -1
    outer loop
      vertex 67.4 49 -2
      vertex 68 52 -2
      vertex 68.2 50.3856 -2
    endloop
  endfacet
  facet normal 0 0 -1
    outer loop
      vertex 50.8998 30.2435 -2
      vertex 67.4 49 -2
      vertex 64.2435 35.1002 -2
    endloop
  endfacet
  facet normal 0 0 -1
    outer loop
      vertex 46.1 31.1 -2
      vertex 67.4 49 -2
      vertex 50.8998 30.2435 -2
    endloop
  endfacet
  facet normal 0 0 -1
    outer loop
      vertex 46.1 31.1 -2
      vertex 50.8998 30.2435 -2
      vertex 46.1 16.9 -2
    endloop
  endfacet
  facet normal -0 0 -1
    outer loop
      vertex 67.4 49 -2
      vertex 46.1 31.1 -2
      vertex 68 52 -2
    endloop
  endfacet
  facet normal 0 0 -1
    outer loop
      vertex 27.1 34.1 -2
      vertex 46.1 31.1 -2
      vertex 31.9 31.1 -2
    endloop
  endfacet
  facet normal 0 0 -1
    outer loop
      vertex 27.1 34.1 -2
      vertex 31.9 31.1 -2
      vertex 27.1 19.9 -2
    endloop
  endfacet
  facet normal 0 0 -1
    outer loop
      vertex 46.1 31.1 -2
      vertex 27.1 34.1 -2
      vertex 68 52 -2
    endloop
  endfacet
  facet normal 0 0 -1
    outer loop
      vertex 12.9 34.1 -2
      vertex 68 52 -2
      vertex 27.1 34.1 -2
    endloop
  endfacet
  facet normal 0 0 -1
    outer loop
      vertex 6.8 25.3856 -2
      vertex 12.9 34.1 -2
      vertex 7.6 24 -2
    endloop
  endfacet
  facet normal 0 0 -1
    outer loop
      vertex 2 36 -2
      vertex 6.8 25.3856 -2
      vertex 5.2 25.3856 -2
    endloop
  endfacet
  facet normal 0 0 -1
    outer loop
      vertex 12.9 34.1 -2
      vertex 2 36 -2
      vertex 68 52 -2
    endloop
  endfacet
  facet normal 0 0 -1
    outer loop
      vertex 6.8 25.3856 -2
      vertex 2 36 -2
      vertex 12.9 34.1 -2
    endloop
  endfacet
  facet normal 0 0 -1
    outer loop
      vertex 4.4 24 -2
      vertex 2 36 -2
      vertex 5.2 25.3856 -2
    endloop
  endfacet
  facet normal 0 0 -1
    outer loop
      vertex 2 36 -2
      vertex 4.4 24 -2
      vertex 2 12 -2
    endloop
  endfacet
  facet normal 0 0 -1
    outer loop
      vertex 64.2435 35.1002 -2
      vertex 77.1249 26.9973 -2
      vertex 69.1002 21.7565 -2
    endloop
  endfacet
  facet normal -0 0 -1
    outer loop
      vertex 68.2 47.6144 -2
      vertex 64.2435 35.1002 -2
      vertex 67.4 49 -2
    endloop
  endfacet
  facet normal 0 0 -1
    outer loop
      vertex 77.1249 26.9973 -2
      vertex 64.2435 35.1002 -2
      vertex 67.9973 37.8751 -2
    endloop
  endfacet
  facet normal 0 -1 0
    outer loop
      vertex 12.9 34.1 0
      vertex 17 34.1 -0.599999
      vertex 17 34.1 0
    endloop
  endfacet
  facet normal 0 -1 -0
    outer loop
      vertex 17 34.1 -0.599999
      vertex 12.9 34.1 -2
      vertex 23 34.1 -0.599999
    endloop
  endfacet
  facet normal 0 -1 0
    outer loop
      vertex 12.9 34.1 -2
      vertex 17 34.1 -0.599999
      vertex 12.9 34.1 0
    endloop
  endfacet
  facet normal 0 -1 0
    outer loop
      vertex 23 34.1 -0.599999
      vertex 27.1 34.1 0
      vertex 23 34.1 0
    endloop
  endfacet
  facet normal 0 -1 0
    outer loop
      vertex 23 34.1 -0.599999
      vertex 27.1 34.1 -2
      vertex 27.1 34.1 0
    endloop
  endfacet
  facet normal 0 -1 0
    outer loop
      vertex 27.1 34.1 -2
      vertex 23 34.1 -0.599999
      vertex 12.9 34.1 -2
    endloop
  endfacet
  facet normal 1 -0 0
    outer loop
      vertex 12.9 19.9 0
      vertex 12.9 34.1 -2
      vertex 12.9 34.1 0
    endloop
  endfacet
  facet normal 1 0 0
    outer loop
      vertex 12.9 34.1 -2
      vertex 12.9 19.9 0
      vertex 12.9 19.9 -2
    endloop
  endfacet
  facet normal 0 1 0
    outer loop
      vertex 27.1 19.9 0
      vertex 23 19.9 -0.599999
      vertex 23 19.9 0
    endloop
  endfacet
  facet normal 0 1 0
    outer loop
      vertex 23 19.9 -0.599999
      vertex 27.1 19.9 -2
      vertex 17 19.9 -0.599999
    endloop
  endfacet
  facet normal 0 1 -0
    outer loop
      vertex 27.1 19.9 -2
      vertex 23 19.9 -0.599999
      vertex 27.1 19.9 0
    endloop
  endfacet
  facet normal 0 1 -0
    outer loop
      vertex 17 19.9 -0.599999
      vertex 12.9 19.9 0
      vertex 17 19.9 0
    endloop
  endfacet
  facet normal 0 1 0
    outer loop
      vertex 17 19.9 -0.599999
      vertex 12.9 19.9 -2
      vertex 12.9 19.9 0
    endloop
  endfacet
  facet normal 0 1 0
    outer loop
      vertex 12.9 19.9 -2
      vertex 17 19.9 -0.599999
      vertex 27.1 19.9 -2
    endloop
  endfacet
  facet normal -0 0 1
    outer loop
      vertex 17 35 -0.599999
      vertex 23 34.1 -0.599999
      vertex 23 35 -0.599999
    endloop
  endfacet
  facet normal 0 0 1
    outer loop
      vertex 23 34.1 -0.599999
      vertex 17 35 -0.599999
      vertex 17 34.1 -0.599999
    endloop
  endfacet
  facet normal -0 0 1
    outer loop
      vertex 17 19.9 -0.599999
      vertex 23 19 -0.599999
      vertex 23 19.9 -0.599999
    endloop
  endfacet
  facet normal 0 0 1
    outer loop
      vertex 23 19 -0.599999
      vertex 17 19.9 -0.599999
      vertex 17 19 -0.599999
    endloop
  endfacet
  facet normal 0 -1 0
    outer loop
      vertex 17 35 -0.599999
      vertex 23 35 0
      vertex 17 35 0
    endloop
  endfacet
  facet normal 0 -1 -0
    outer loop
      vertex 23 35 0
      vertex 17 35 -0.599999
      vertex 23 35 -0.599999
    endloop
  endfacet
  facet normal -1 0 0
    outer loop
      vertex 23 34.1 -0.599999
      vertex 23 35 0
      vertex 23 35 -0.599999
    endloop
  endfacet
  facet normal -1 -0 0
    outer loop
      vertex 23 35 0
      vertex 23 34.1 -0.599999
      vertex 23 34.1 0
    endloop
  endfacet
  facet normal 1 -0 0
    outer loop
      vertex 17 34.1 0
      vertex 17 35 -0.599999
      vertex 17 35 0
    endloop
  endfacet
  facet normal 1 0 0
    outer loop
      vertex 17 35 -0.599999
      vertex 17 34.1 0
      vertex 17 34.1 -0.599999
    endloop
  endfacet
  facet normal -1 0 0
    outer loop
      vertex 23 19 -0.599999
      vertex 23 19.9 0
      vertex 23 19.9 -0.599999
    endloop
  endfacet
  facet normal -1 -0 0
    outer loop
      vertex 23 19.9 0
      vertex 23 19 -0.599999
      vertex 23 19 0
    endloop
  endfacet
  facet normal 0 1 -0
    outer loop
      vertex 23 19 -0.599999
      vertex 17 19 0
      vertex 23 19 0
    endloop
  endfacet
  facet normal 0 1 0
    outer loop
      vertex 17 19 0
      vertex 23 19 -0.599999
      vertex 17 19 -0.599999
    endloop
  endfacet
  facet normal 1 -0 0
    outer loop
      vertex 17 19 0
      vertex 17 19.9 -0.599999
      vertex 17 19.9 0
    endloop
  endfacet
  facet normal 1 0 0
    outer loop
      vertex 17 19.9 -0.599999
      vertex 17 19 0
      vertex 17 19 -0.599999
    endloop
  endfacet
  facet normal -1 0 0
    outer loop
      vertex 46.1 16.9 -2
      vertex 46.1 31.1 0
      vertex 46.1 31.1 -2
    endloop
  endfacet
  facet normal -1 -0 0
    outer loop
      vertex 46.1 31.1 0
      vertex 46.1 16.9 -2
      vertex 46.1 16.9 0
    endloop
  endfacet
  facet normal 0 -1 0
    outer loop
      vertex 31.9 31.1 0
      vertex 36 31.1 -0.599999
      vertex 36 31.1 0
    endloop
  endfacet
  facet normal 0 -1 -0
    outer loop
      vertex 36 31.1 -0.599999
      vertex 31.9 31.1 -2
      vertex 42 31.1 -0.599999
    endloop
  endfacet
  facet normal 0 -1 0
    outer loop
      vertex 31.9 31.1 -2
      vertex 36 31.1 -0.599999
      vertex 31.9 31.1 0
    endloop
  endfacet
  facet normal 0 -1 0
    outer loop
      vertex 42 31.1 -0.599999
      vertex 46.1 31.1 0
      vertex 42 31.1 0
    endloop
  endfacet
  facet normal 0 -1 0
    outer loop
      vertex 42 31.1 -0.599999
      vertex 46.1 31.1 -2
      vertex 46.1 31.1 0
    endloop
  endfacet
  facet normal 0 -1 0
    outer loop
      vertex 46.1 31.1 -2
      vertex 42 31.1 -0.599999
      vertex 31.9 31.1 -2
    endloop
  endfacet
  facet normal 1 -0 0
    outer loop
      vertex 31.9 16.9 0
      vertex 31.9 31.1 -2
      vertex 31.9 31.1 0
    endloop
  endfacet
  facet normal 1 0 0
    outer loop
      vertex 31.9 31.1 -2
      vertex 31.9 16.9 0
      vertex 31.9 16.9 -2
    endloop
  endfacet
  facet normal 0 1 0
    outer loop
      vertex 46.1 16.9 0
      vertex 42 16.9 -0.599999
      vertex 42 16.9 0
    endloop
  endfacet
  facet normal 0 1 0
    outer loop
      vertex 42 16.9 -0.599999
      vertex 46.1 16.9 -2
      vertex 36 16.9 -0.599999
    endloop
  endfacet
  facet normal 0 1 -0
    outer loop
      vertex 46.1 16.9 -2
      vertex 42 16.9 -0.599999
      vertex 46.1 16.9 0
    endloop
  endfacet
  facet normal 0 1 -0
    outer loop
      vertex 36 16.9 -0.599999
      vertex 31.9 16.9 0
      vertex 36 16.9 0
    endloop
  endfacet
  facet normal 0 1 0
    outer loop
      vertex 36 16.9 -0.599999
      vertex 31.9 16.9 -2
      vertex 31.9 16.9 0
    endloop
  endfacet
  facet normal 0 1 0
    outer loop
      vertex 31.9 16.9 -2
      vertex 36 16.9 -0.599999
      vertex 46.1 16.9 -2
    endloop
  endfacet
  facet normal -0 0 1
    outer loop
      vertex 36 32 -0.599999
      vertex 42 31.1 -0.599999
      vertex 42 32 -0.599999
    endloop
  endfacet
  facet normal 0 0 1
    outer loop
      vertex 42 31.1 -0.599999
      vertex 36 32 -0.599999
      vertex 36 31.1 -0.599999
    endloop
  endfacet
  facet normal -0 0 1
    outer loop
      vertex 36 16.9 -0.599999
      vertex 42 16 -0.599999
      vertex 42 16.9 -0.599999
    endloop
  endfacet
  facet normal 0 0 1
    outer loop
      vertex 42 16 -0.599999
      vertex 36 16.9 -0.599999
      vertex 36 16 -0.599999
    endloop
  endfacet
  facet normal 0 -1 0
    outer loop
      vertex 36 32 -0.599999
      vertex 42 32 0
      vertex 36 32 0
    endloop
  endfacet
  facet normal 0 -1 -0
    outer loop
      vertex 42 32 0
      vertex 36 32 -0.599999
      vertex 42 32 -0.599999
    endloop
  endfacet
  facet normal -1 0 0
    outer loop
      vertex 42 31.1 -0.599999
      vertex 42 32 0
      vertex 42 32 -0.599999
    endloop
  endfacet
  facet normal -1 -0 0
    outer loop
      vertex 42 32 0
      vertex 42 31.1 -0.599999
      vertex 42 31.1 0
    endloop
  endfacet
  facet normal 1 -0 0
    outer loop
      vertex 36 31.1 0
      vertex 36 32 -0.599999
      vertex 36 32 0
    endloop
  endfacet
  facet normal 1 0 0
    outer loop
      vertex 36 32 -0.599999
      vertex 36 31.1 0
      vertex 36 31.1 -0.599999
    endloop
  endfacet
  facet normal -1 0 0
    outer loop
      vertex 42 16 -0.599999
      vertex 42 16.9 0
      vertex 42 16.9 -0.599999
    endloop
  endfacet
  facet normal -1 -0 0
    outer loop
      vertex 42 16.9 0
      vertex 42 16 -0.599999
      vertex 42 16 0
    endloop
  endfacet
  facet normal 0 1 -0
    outer loop
      vertex 42 16 -0.599999
      vertex 36 16 0
      vertex 42 16 0
    endloop
  endfacet
  facet normal 0 1 0
    outer loop
      vertex 36 16 0
      vertex 42 16 -0.599999
      vertex 36 16 -0.599999
    endloop
  endfacet
  facet normal 1 -0 0
    outer loop
      vertex 36 16 0
      vertex 36 16.9 -0.599999
      vertex 36 16.9 0
    endloop
  endfacet
  facet normal 1 0 0
    outer loop
      vertex 36 16.9 -0.599999
      vertex 36 16 0
      vertex 36 16 -0.599999
    endloop
  endfacet
  facet normal -0.939693 -0.34202 0
    outer loop
      vertex 69.1002 21.7565 -2
      vertex 64.2435 35.1002 0
      vertex 64.2435 35.1002 -2
    endloop
  endfacet
  facet normal -0.939693 -0.34202 0
    outer loop
      vertex 64.2435 35.1002 0
      vertex 69.1002 21.7565 -2
      vertex 69.1002 21.7565 0
    endloop
  endfacet
  facet normal 0.342019 -0.939693 0
    outer loop
      vertex 50.8998 30.2435 0
      vertex 54.7526 31.6458 -0.599999
      vertex 54.7526 31.6458 0
    endloop
  endfacet
  facet normal 0.34202 -0.939693 -2.76788e-06
    outer loop
      vertex 54.7526 31.6458 -0.599999
      vertex 50.8998 30.2435 -2
      vertex 60.3907 33.6979 -0.599999
    endloop
  endfacet
  facet normal 0.342019 -0.939693 0
    outer loop
      vertex 50.8998 30.2435 -2
      vertex 54.7526 31.6458 -0.599999
      vertex 50.8998 30.2435 0
    endloop
  endfacet
  facet normal 0.342019 -0.939693 0
    outer loop
      vertex 60.3907 33.6979 -0.599999
      vertex 64.2435 35.1002 0
      vertex 60.3907 33.6979 0
    endloop
  endfacet
  facet normal 0.342019 -0.939693 0
    outer loop
      vertex 60.3907 33.6979 -0.599999
      vertex 64.2435 35.1002 -2
      vertex 64.2435 35.1002 0
    endloop
  endfacet
  facet normal 0.34202 -0.939693 1.16951e-06
    outer loop
      vertex 64.2435 35.1002 -2
      vertex 60.3907 33.6979 -0.599999
      vertex 50.8998 30.2435 -2
    endloop
  endfacet
  facet normal 0.939693 0.34202 0
    outer loop
      vertex 55.7565 16.8998 0
      vertex 50.8998 30.2435 -2
      vertex 50.8998 30.2435 0
    endloop
  endfacet
  facet normal 0.939693 0.34202 0
    outer loop
      vertex 50.8998 30.2435 -2
      vertex 55.7565 16.8998 0
      vertex 55.7565 16.8998 -2
    endloop
  endfacet
  facet normal -0.342019 0.939693 0
    outer loop
      vertex 69.1002 21.7565 0
      vertex 65.2474 20.3542 -0.599999
      vertex 65.2474 20.3542 0
    endloop
  endfacet
  facet normal -0.34202 0.939693 -2.76788e-06
    outer loop
      vertex 65.2474 20.3542 -0.599999
      vertex 69.1002 21.7565 -2
      vertex 59.6093 18.3021 -0.599999
    endloop
  endfacet
  facet normal -0.342019 0.939693 0
    outer loop
      vertex 69.1002 21.7565 -2
      vertex 65.2474 20.3542 -0.599999
      vertex 69.1002 21.7565 0
    endloop
  endfacet
  facet normal -0.342019 0.939693 0
    outer loop
      vertex 59.6093 18.3021 -0.599999
      vertex 55.7565 16.8998 0
      vertex 59.6093 18.3021 0
    endloop
  endfacet
  facet normal -0.342019 0.939693 0
    outer loop
      vertex 59.6093 18.3021 -0.599999
      vertex 55.7565 16.8998 -2
      vertex 55.7565 16.8998 0
    endloop
  endfacet
  facet normal -0.34202 0.939693 1.16951e-06
    outer loop
      vertex 55.7565 16.8998 -2
      vertex 59.6093 18.3021 -0.599999
      vertex 69.1002 21.7565 -2
    endloop
  endfacet
  facet normal 0 0 1
    outer loop
      vertex 60.0829 34.5436 -0.599999
      vertex 54.7526 31.6458 -0.599999
      vertex 60.3907 33.6979 -0.599999
    endloop
  endfacet
  facet normal 0 -0 1
    outer loop
      vertex 54.7526 31.6458 -0.599999
      vertex 60.0829 34.5436 -0.599999
      vertex 54.4448 32.4915 -0.599999
    endloop
  endfacet
  facet normal 0 0 1
    outer loop
      vertex 65.2474 20.3542 -0.599999
      vertex 59.9171 17.4564 -0.599999
      vertex 65.5552 19.5085 -0.599999
    endloop
  endfacet
  facet normal 0 -0 1
    outer loop
      vertex 59.9171 17.4564 -0.599999
      vertex 65.2474 20.3542 -0.599999
      vertex 59.6093 18.3021 -0.599999
    endloop
  endfacet
  facet normal 0.34202 -0.939693 0
    outer loop
      vertex 54.4448 32.4915 -0.599999
      vertex 60.0829 34.5436 0
      vertex 54.4448 32.4915 0
    endloop
  endfacet
  facet normal 0.34202 -0.939693 0
    outer loop
      vertex 60.0829 34.5436 0
      vertex 54.4448 32.4915 -0.599999
      vertex 60.0829 34.5436 -0.599999
    endloop
  endfacet
  facet normal -0.939696 -0.342011 0
    outer loop
      vertex 60.3907 33.6979 -0.599999
      vertex 60.0829 34.5436 0
      vertex 60.0829 34.5436 -0.599999
    endloop
  endfacet
  facet normal -0.939696 -0.342011 0
    outer loop
      vertex 60.0829 34.5436 0
      vertex 60.3907 33.6979 -0.599999
      vertex 60.3907 33.6979 0
    endloop
  endfacet
  facet normal 0.939696 0.342011 0
    outer loop
      vertex 54.7526 31.6458 0
      vertex 54.4448 32.4915 -0.599999
      vertex 54.4448 32.4915 0
    endloop
  endfacet
  facet normal 0.939696 0.342011 0
    outer loop
      vertex 54.4448 32.4915 -0.599999
      vertex 54.7526 31.6458 0
      vertex 54.7526 31.6458 -0.599999
    endloop
  endfacet
  facet normal -0.939696 -0.342011 0
    outer loop
      vertex 65.5552 19.5085 -0.599999
      vertex 65.2474 20.3542 0
      vertex 65.2474 20.3542 -0.599999
    endloop
  endfacet
  facet normal -0.939696 -0.342011 0
    outer loop
      vertex 65.2474 20.3542 0
      vertex 65.5552 19.5085 -0.599999
      vertex 65.5552 19.5085 0
    endloop
  endfacet
  facet normal -0.34202 0.939693 0
    outer loop
      vertex 65.5552 19.5085 -0.599999
      vertex 59.9171 17.4564 0
      vertex 65.5552 19.5085 0
    endloop
  endfacet
  facet normal -0.34202 0.939693 0
    outer loop
      vertex 59.9171 17.4564 0
      vertex 65.5552 19.5085 -0.599999
      vertex 59.9171 17.4564 -0.599999
    endloop
  endfacet
  facet normal 0.939696 0.342011 0
    outer loop
      vertex 59.9171 17.4564 0
      vertex 59.6093 18.3021 -0.599999
      vertex 59.6093 18.3021 0
    endloop
  endfacet
  facet normal 0.939696 0.342011 0
    outer loop
      vertex 59.6093 18.3021 -0.599999
      vertex 59.9171 17.4564 0
      vertex 59.9171 17.4564 -0.599999
    endloop
  endfacet
  facet normal -0.766043 -0.642789 0
    outer loop
      vertex 88.0027 36.1249 -2
      vertex 78.8751 47.0027 0
      vertex 78.8751 47.0027 -2
    endloop
  endfacet
  facet normal -0.766043 -0.642789 0
    outer loop
      vertex 78.8751 47.0027 0
      vertex 88.0027 36.1249 -2
      vertex 88.0027 36.1249 0
    endloop
  endfacet
  facet normal 0.642796 -0.766038 0
    outer loop
      vertex 67.9973 37.8751 0
      vertex 71.1381 40.5106 -0.599999
      vertex 71.1381 40.5106 0
    endloop
  endfacet
  facet normal 0.642791 -0.766042 1.9255e-05
    outer loop
      vertex 71.1381 40.5106 -0.599999
      vertex 67.9973 37.8751 -2
      vertex 75.7343 44.3673 -0.599999
    endloop
  endfacet
  facet normal 0.642796 -0.766038 0
    outer loop
      vertex 67.9973 37.8751 -2
      vertex 71.1381 40.5106 -0.599999
      vertex 67.9973 37.8751 0
    endloop
  endfacet
  facet normal 0.642781 -0.76605 0
    outer loop
      vertex 75.7343 44.3673 -0.599999
      vertex 78.8751 47.0027 0
      vertex 75.7343 44.3673 0
    endloop
  endfacet
  facet normal 0.642781 -0.76605 0
    outer loop
      vertex 75.7343 44.3673 -0.599999
      vertex 78.8751 47.0027 -2
      vertex 78.8751 47.0027 0
    endloop
  endfacet
  facet normal 0.642789 -0.766043 3.07827e-05
    outer loop
      vertex 78.8751 47.0027 -2
      vertex 75.7343 44.3673 -0.599999
      vertex 67.9973 37.8751 -2
    endloop
  endfacet
  facet normal 0.766043 0.642789 0
    outer loop
      vertex 77.1249 26.9973 0
      vertex 67.9973 37.8751 -2
      vertex 67.9973 37.8751 0
    endloop
  endfacet
  facet normal 0.766043 0.642789 0
    outer loop
      vertex 67.9973 37.8751 -2
      vertex 77.1249 26.9973 0
      vertex 77.1249 26.9973 -2
    endloop
  endfacet
  facet normal -0.642796 0.766038 0
    outer loop
      vertex 88.0027 36.1249 0
      vertex 84.8619 33.4894 -0.599999
      vertex 84.8619 33.4894 0
    endloop
  endfacet
  facet normal -0.642791 0.766042 1.9255e-05
    outer loop
      vertex 84.8619 33.4894 -0.599999
      vertex 88.0027 36.1249 -2
      vertex 80.2657 29.6327 -0.599999
    endloop
  endfacet
  facet normal -0.642796 0.766038 0
    outer loop
      vertex 88.0027 36.1249 -2
      vertex 84.8619 33.4894 -0.599999
      vertex 88.0027 36.1249 0
    endloop
  endfacet
  facet normal -0.642781 0.76605 0
    outer loop
      vertex 80.2657 29.6327 -0.599999
      vertex 77.1249 26.9973 0
      vertex 80.2657 29.6327 0
    endloop
  endfacet
  facet normal -0.642781 0.76605 0
    outer loop
      vertex 80.2657 29.6327 -0.599999
      vertex 77.1249 26.9973 -2
      vertex 77.1249 26.9973 0
    endloop
  endfacet
  facet normal -0.642789 0.766043 3.07827e-05
    outer loop
      vertex 77.1249 26.9973 -2
      vertex 80.2657 29.6327 -0.599999
      vertex 88.0027 36.1249 -2
    endloop
  endfacet
  facet normal 0 0 1
    outer loop
      vertex 75.1558 45.0567 -0.599999
      vertex 71.1381 40.5106 -0.599999
      vertex 75.7343 44.3673 -0.599999
    endloop
  endfacet
  facet normal 0 -0 1
    outer loop
      vertex 71.1381 40.5106 -0.599999
      vertex 75.1558 45.0567 -0.599999
      vertex 70.5596 41.2 -0.599999
    endloop
  endfacet
  facet normal 0 0 1
    outer loop
      vertex 84.8619 33.4894 -0.599999
      vertex 80.8442 28.9433 -0.599999
      vertex 85.4404 32.8 -0.599999
    endloop
  endfacet
  facet normal 0 -0 1
    outer loop
      vertex 80.8442 28.9433 -0.599999
      vertex 84.8619 33.4894 -0.599999
      vertex 80.2657 29.6327 -0.599999
    endloop
  endfacet
  facet normal 0.642791 -0.766042 0
    outer loop
      vertex 70.5596 41.2 -0.599999
      vertex 75.1558 45.0567 0
      vertex 70.5596 41.2 0
    endloop
  endfacet
  facet normal 0.642791 -0.766042 0
    outer loop
      vertex 75.1558 45.0567 0
      vertex 70.5596 41.2 -0.599999
      vertex 75.1558 45.0567 -0.599999
    endloop
  endfacet
  facet normal -0.766031 -0.642804 0
    outer loop
      vertex 75.7343 44.3673 -0.599999
      vertex 75.1558 45.0567 0
      vertex 75.1558 45.0567 -0.599999
    endloop
  endfacet
  facet normal -0.766031 -0.642804 0
    outer loop
      vertex 75.1558 45.0567 0
      vertex 75.7343 44.3673 -0.599999
      vertex 75.7343 44.3673 0
    endloop
  endfacet
  facet normal 0.766031 0.642804 0
    outer loop
      vertex 71.1381 40.5106 0
      vertex 70.5596 41.2 -0.599999
      vertex 70.5596 41.2 0
    endloop
  endfacet
  facet normal 0.766031 0.642804 0
    outer loop
      vertex 70.5596 41.2 -0.599999
      vertex 71.1381 40.5106 0
      vertex 71.1381 40.5106 -0.599999
    endloop
  endfacet
  facet normal -0.766031 -0.642804 0
    outer loop
      vertex 85.4404 32.8 -0.599999
      vertex 84.8619 33.4894 0
      vertex 84.8619 33.4894 -0.599999
    endloop
  endfacet
  facet normal -0.766031 -0.642804 0
    outer loop
      vertex 84.8619 33.4894 0
      vertex 85.4404 32.8 -0.599999
      vertex 85.4404 32.8 0
    endloop
  endfacet
  facet normal -0.642791 0.766042 0
    outer loop
      vertex 85.4404 32.8 -0.599999
      vertex 80.8442 28.9433 0
      vertex 85.4404 32.8 0
    endloop
  endfacet
  facet normal -0.642791 0.766042 0
    outer loop
      vertex 80.8442 28.9433 0
      vertex 85.4404 32.8 -0.599999
      vertex 80.8442 28.9433 -0.599999
    endloop
  endfacet
  facet normal 0.766031 0.642804 0
    outer loop
      vertex 80.8442 28.9433 0
      vertex 80.2657 29.6327 -0.599999
      vertex 80.2657 29.6327 0
    endloop
  endfacet
  facet normal 0.766031 0.642804 0
    outer loop
      vertex 80.2657 29.6327 -0.599999
      vertex 80.8442 28.9433 0
      vertex 80.8442 28.9433 -0.599999
    endloop
  endfacet
  facet normal -0.866019 -0.500011 0
    outer loop
      vertex 7.6 24 -2
      vertex 6.8 25.3856 0
      vertex 6.8 25.3856 -2
    endloop
  endfacet
  facet normal -0.866019 -0.500011 0
    outer loop
      vertex 6.8 25.3856 0
      vertex 7.6 24 -2
      vertex 7.6 24 0
    endloop
  endfacet
  facet normal 0.866019 -0.500011 0
    outer loop
      vertex 4.4 24 0
      vertex 5.2 25.3856 -2
      vertex 5.2 25.3856 0
    endloop
  endfacet
  facet normal 0.866019 -0.500011 0
    outer loop
      vertex 5.2 25.3856 -2
      vertex 4.4 24 0
      vertex 4.4 24 -2
    endloop
  endfacet
  facet normal 0.866019 0.500011 0
    outer loop
      vertex 5.2 22.6144 0
      vertex 4.4 24 -2
      vertex 4.4 24 0
    endloop
  endfacet
  facet normal 0.866019 0.500011 0
    outer loop
      vertex 4.4 24 -2
      vertex 5.2 22.6144 0
      vertex 5.2 22.6144 -2
    endloop
  endfacet
  facet normal 0 1 -0
    outer loop
      vertex 6.8 22.6144 -2
      vertex 5.2 22.6144 0
      vertex 6.8 22.6144 0
    endloop
  endfacet
  facet normal 0 1 0
    outer loop
      vertex 5.2 22.6144 0
      vertex 6.8 22.6144 -2
      vertex 5.2 22.6144 -2
    endloop
  endfacet
  facet normal 0 -1 0
    outer loop
      vertex 5.2 25.3856 -2
      vertex 6.8 25.3856 0
      vertex 5.2 25.3856 0
    endloop
  endfacet
  facet normal 0 -1 -0
    outer loop
      vertex 6.8 25.3856 0
      vertex 5.2 25.3856 -2
      vertex 6.8 25.3856 -2
    endloop
  endfacet
  facet normal -0.866019 0.500011 0
    outer loop
      vertex 6.8 22.6144 -2
      vertex 7.6 24 0
      vertex 7.6 24 -2
    endloop
  endfacet
  facet normal -0.866019 0.500011 0
    outer loop
      vertex 7.6 24 0
      vertex 6.8 22.6144 -2
      vertex 6.8 22.6144 0
    endloop
  endfacet
  facet normal 0 1 -0
    outer loop
      vertex 80.8 14.6144 -2
      vertex 79.2 14.6144 0
      vertex 80.8 14.6144 0
    endloop
  endfacet
  facet normal 0 1 0
    outer loop
      vertex 79.2 14.6144 0
      vertex 80.8 14.6144 -2
      vertex 79.2 14.6144 -2
    endloop
  endfacet
  facet normal -0.866019 0.500011 0
    outer loop
      vertex 80.8 14.6144 -2
      vertex 81.6 16 0
      vertex 81.6 16 -2
    endloop
  endfacet
  facet normal -0.866019 0.500011 0
    outer loop
      vertex 81.6 16 0
      vertex 80.8 14.6144 -2
      vertex 80.8 14.6144 0
    endloop
  endfacet
  facet normal 0.866019 0.500011 0
    outer loop
      vertex 79.2 14.6144 0
      vertex 78.4 16 -2
      vertex 78.4 16 0
    endloop
  endfacet
  facet normal 0.866019 0.500011 0
    outer loop
      vertex 78.4 16 -2
      vertex 79.2 14.6144 0
      vertex 79.2 14.6144 -2
    endloop
  endfacet
  facet normal -0.866019 -0.500011 0
    outer loop
      vertex 81.6 16 -2
      vertex 80.8 17.3856 0
      vertex 80.8 17.3856 -2
    endloop
  endfacet
  facet normal -0.866019 -0.500011 0
    outer loop
      vertex 80.8 17.3856 0
      vertex 81.6 16 -2
      vertex 81.6 16 0
    endloop
  endfacet
  facet normal 0.866019 -0.500011 0
    outer loop
      vertex 78.4 16 0
      vertex 79.2 17.3856 -2
      vertex 79.2 17.3856 0
    endloop
  endfacet
  facet normal 0.866019 -0.500011 0
    outer loop
      vertex 79.2 17.3856 -2
      vertex 78.4 16 0
      vertex 78.4 16 -2
    endloop
  endfacet
  facet normal 0 -1 0
    outer loop
      vertex 79.2 17.3856 -2
      vertex 80.8 17.3856 0
      vertex 79.2 17.3856 0
    endloop
  endfacet
  facet normal 0 -1 -0
    outer loop
      vertex 80.8 17.3856 0
      vertex 79.2 17.3856 -2
      vertex 80.8 17.3856 -2
    endloop
  endfacet
  facet normal 0 1 -0
    outer loop
      vertex 69.8 47.6144 -2
      vertex 68.2 47.6144 0
      vertex 69.8 47.6144 0
    endloop
  endfacet
  facet normal 0 1 0
    outer loop
      vertex 68.2 47.6144 0
      vertex 69.8 47.6144 -2
      vertex 68.2 47.6144 -2
    endloop
  endfacet
  facet normal -0.866019 0.500011 0
    outer loop
      vertex 69.8 47.6144 -2
      vertex 70.6 49 0
      vertex 70.6 49 -2
    endloop
  endfacet
  facet normal -0.866019 0.500011 0
    outer loop
      vertex 70.6 49 0
      vertex 69.8 47.6144 -2
      vertex 69.8 47.6144 0
    endloop
  endfacet
  facet normal 0.866019 0.500011 0
    outer loop
      vertex 68.2 47.6144 0
      vertex 67.4 49 -2
      vertex 67.4 49 0
    endloop
  endfacet
  facet normal 0.866019 0.500011 0
    outer loop
      vertex 67.4 49 -2
      vertex 68.2 47.6144 0
      vertex 68.2 47.6144 -2
    endloop
  endfacet
  facet normal -0.866019 -0.500011 0
    outer loop
      vertex 70.6 49 -2
      vertex 69.8 50.3856 0
      vertex 69.8 50.3856 -2
    endloop
  endfacet
  facet normal -0.866019 -0.500011 0
    outer loop
      vertex 69.8 50.3856 0
      vertex 70.6 49 -2
      vertex 70.6 49 0
    endloop
  endfacet
  facet normal 0.866019 -0.500011 0
    outer loop
      vertex 67.4 49 0
      vertex 68.2 50.3856 -2
      vertex 68.2 50.3856 0
    endloop
  endfacet
  facet normal 0.866019 -0.500011 0
    outer loop
      vertex 68.2 50.3856 -2
      vertex 67.4 49 0
      vertex 67.4 49 -2
    endloop
  endfacet
  facet normal 0 -1 0
    outer loop
      vertex 68.2 50.3856 -2
      vertex 69.8 50.3856 0
      vertex 68.2 50.3856 0
    endloop
  endfacet
  facet normal 0 -1 -0
    outer loop
      vertex 69.8 50.3856 0
      vertex 68.2 50.3856 -2
      vertex 69.8 50.3856 -2
    endloop
  endfacet
  facet normal 0.780869 0.624695 0
    outer loop
      vertex 98 32 0
      vertex 82 52 -2
      vertex 82 52 0
    endloop
  endfacet
  facet normal 0.780869 0.624695 0
    outer loop
      vertex 82 52 -2
      vertex 98 32 0
      vertex 98 32 -2
    endloop
  endfacet
  facet normal -1 0 0
    outer loop
      vertex 2 12 -2
      vertex 2 36 0
      vertex 2 36 -2
    endloop
  endfacet
  facet normal -1 -0 0
    outer loop
      vertex 2 36 0
      vertex 2 12 -2
      vertex 2 12 0
    endloop
  endfacet
  facet normal -0.2356 0.97185 0
    outer loop
      vertex 68 52 -2
      vertex 2 36 0
      vertex 68 52 0
    endloop
  endfacet
  facet normal -0.2356 0.97185 0
    outer loop
      vertex 2 36 0
      vertex 68 52 -2
      vertex 2 36 -2
    endloop
  endfacet
  facet normal 0 -1 0
    outer loop
      vertex 2 12 -2
      vertex 82 12 0
      vertex 2 12 0
    endloop
  endfacet
  facet normal 0 -1 -0
    outer loop
      vertex 82 12 0
      vertex 2 12 -2
      vertex 82 12 -2
    endloop
  endfacet
  facet normal 0.780869 -0.624695 0
    outer loop
      vertex 82 12 0
      vertex 98 32 -2
      vertex 98 32 0
    endloop
  endfacet
  facet normal 0.780869 -0.624695 0
    outer loop
      vertex 98 32 -2
      vertex 82 12 0
      vertex 82 12 -2
    endloop
  endfacet
  facet normal 0 1 -0
    outer loop
      vertex 82 52 -2
      vertex 68 52 0
      vertex 82 52 0
    endloop
  endfacet
  facet normal 0 1 0
    outer loop
      vertex 68 52 0
      vertex 82 52 -2
      vertex 68 52 -2
    endloop
  endfacet
endsolid OpenSCAD_Model
